<?xml version="1.0" encoding="UTF-8"?>
<svg width="374px" height="120px" viewBox="0 0 374 120" version="1.1" xmlns="http://www.w3.org/2000/svg" xmlns:xlink="http://www.w3.org/1999/xlink">
    <!-- Generator: Sketch 63.1 (92452) - https://sketch.com -->
    <title>pf logo1</title>
    <desc>Created with Sketch.</desc>
    <g id="Design_KR" stroke="none" stroke-width="1" fill="none" fill-rule="evenodd">
        <g id="DT_WEB_1_INDEX_DESKTOP_KR-2560px" transform="translate(-453.000000, -19617.000000)">
            <g id="04_Case-Study" transform="translate(0.000000, 15717.000000)">
                <g id="Partners" transform="translate(0.000000, 3480.000000)">
                    <g id="portfolio-sub">
                        <g id="portfolio-sub1">
                            <g id="pf-logo1" transform="translate(400.000000, 360.000000)">
                                <rect id="Rectangle" x="0" y="0" width="480" height="240"></rect>
                                <g id="Logo" transform="translate(53.000000, 60.000000)" fill="#FFFFFF" fill-rule="nonzero">
                                    <polygon id="Path" points="39.9129274 21.0821829 13.0925691 21.0821829 13.0925691 0 0.5 0 0.5 54 13.0925691 54 13.0925691 31.6374859 39.9129274 31.6374859 39.9129274 54 52.5 54 52.5 0 39.9129274 0"></polygon>
                                    <path d="M298.321898,3.08002967 C295.67482,5.62131253 295.568827,9.32923416 295.5,11.4906811 L295.5,54 L308.093922,54 L308.093922,36.7704381 L334.851017,36.7704381 L334.851017,54 L347.5,54 L347.5,0 L308.184773,0 C304.44748,0.0322989688 300.952457,0.541330718 298.321898,3.08002967 Z M311.309509,10.5514271 L334.852393,10.5514271 L334.852393,26.2267627 L308.095299,26.2267627 L308.095299,13.6353327 C308.147607,13.0151925 308.020966,11.8911884 308.578463,11.2258296 C309.174502,10.524296 310.124312,10.5811422 311.309509,10.5514271 Z" id="Shape"></path>
                                    <path d="M216.824682,0 L177.5,0 L177.5,54 L190.094233,54 L190.094233,10.5514271 L213.707733,10.5514271 C214.881399,10.5811422 215.84342,10.524296 216.426131,11.2245376 C216.9896,11.8898964 216.878281,13.0139005 216.918136,13.6340407 L216.918136,53.998708 L229.5,53.998708 L229.5,11.4906811 C229.42991,9.32923416 229.330959,5.62131253 226.700518,3.08002967 C224.060457,0.541330718 220.575191,0.0322989688 216.824682,0 Z" id="Path"></path>
                                    <path d="M155.910512,40.3594995 C155.865167,40.9925593 155.979217,42.0920162 155.424081,42.7625428 C154.827722,43.4705362 153.869976,43.4085221 152.701992,43.4382372 L129.097733,43.4382372 L129.097733,0 L116.5,0 L116.5,54 L155.826692,54 C159.566987,53.9728689 163.054449,53.4496256 165.685847,50.9109266 C168.328238,48.3735196 168.428547,44.6707658 168.5,42.5015671 L168.5,0 L155.91326,0 L155.91326,40.3594995 L155.910512,40.3594995 Z" id="Path"></path>
                                    <path d="M287.5,11.4906811 C287.438125,9.32923416 287.333624,5.62131253 284.701862,3.08002967 C282.068724,0.541330718 278.573457,0.0322989688 274.836189,0 L248.088186,0 L235.5,0 L235.5,54 L274.836189,54 C278.573457,53.9728689 282.068724,53.4496256 284.701862,50.9109266 C287.333624,48.3735196 287.438125,44.6707658 287.5,42.5015671 L287.5,11.4906811 Z M274.950315,40.3594995 C274.904939,40.9925593 275.02044,42.0920162 274.469062,42.7625428 C273.87781,43.4705362 272.90843,43.4085221 271.738299,43.4382372 L248.088186,43.4382372 L248.088186,10.5514271 L271.738299,10.5514271 C272.909805,10.5811422 273.879185,10.524296 274.469062,11.2245376 C275.019065,11.8898964 274.903564,13.0139005 274.950315,13.6340407 L274.950315,40.3594995 Z" id="Shape"></path>
                                    <polygon id="Path" points="84.5061376 23.6260497 69.3462185 0 54.5 0 77.829772 34.0444051 77.829772 54 91.1743197 54 91.1743197 34.0444051 114.5 0 99.6483258 0"></polygon>
                                    <rect id="Rectangle" x="361.5" y="0" width="12" height="54"></rect>
                                    <rect id="Rectangle" x="1.5" y="70" width="372" height="6"></rect>
                                    <path d="M244.099827,110.925299 C245.466309,110.77559 246.700845,110.386921 247.698787,109.405172 C249.050103,108.096653 249.115318,106.190736 249.141101,105.072233 L249.141101,97.9264819 C249.113801,96.8137371 249.048586,94.9006221 247.698787,93.5906637 C246.362637,92.2821449 244.580598,92.0172742 242.674196,92 L222.5,92 L222.5,120 L229.02302,120 L229.02302,110.992957 L237.265898,110.992957 L243.617539,120 L250.5,120 L244.099827,110.925299 Z M243.010887,104.009871 C242.980555,104.297774 242.947189,104.598632 242.769743,104.820318 C242.469451,105.183075 241.973513,105.158604 241.378995,105.158604 L229.024537,105.158604 L229.024537,97.8329135 L241.378995,97.8329135 C241.973513,97.8487481 242.469451,97.8185183 242.769743,98.1841551 C242.947189,98.4029613 242.982071,98.715336 243.010887,98.9888438 L243.010887,104.009871 Z" id="Shape"></path>
                                    <path d="M175.102297,110.925299 C176.472258,110.77559 177.705678,110.386921 178.710013,109.405172 C180.057217,108.096653 180.123971,106.190736 180.149762,105.072233 L180.149762,97.9264819 C180.123971,96.8137371 180.057217,94.9006221 178.710013,93.5906637 C177.370394,92.2821449 175.583225,92.0172742 173.671651,92 L153.5,92 L153.5,120 L160.017555,120 L160.017555,110.992957 L168.267664,110.992957 L174.62137,120 L181.5,120 L175.102297,110.925299 Z M174.006935,104.009871 C173.984179,104.297774 173.949285,104.598632 173.773299,104.820318 C173.472909,105.183075 172.979844,105.158604 172.380581,105.158604 L160.019072,105.158604 L160.019072,97.8329135 L172.380581,97.8329135 C172.979844,97.8487481 173.472909,97.8185183 173.773299,98.1841551 C173.950802,98.4029613 173.985696,98.715336 174.006935,98.9888438 L174.006935,104.009871 Z" id="Shape"></path>
                                    <polygon id="Path" points="99.5 92 99.5 98.130893 110.097482 98.130893 110.097482 120 116.892949 120 116.892949 98.130893 127.5 98.130893 127.5 92"></polygon>
                                    <polygon id="Path" points="43.5 92 43.5 120 49.2845288 120 49.2845288 102.285332 54.9467631 120 60.0600311 120 65.71683 102.285332 65.71683 120 71.5 120 71.5 92 63.8294186 92 57.5 111.718472 51.1719402 92"></polygon>
                                    <path d="M307.5,120 L314.295574,120 L314.295574,111.974293 L328.678873,111.974293 C330.697582,111.965656 332.572553,111.695013 333.974789,110.386427 C335.400981,109.066324 335.466461,107.164627 335.5,106.057584 L335.5,97.9296658 C335.466461,96.812545 335.399384,94.9094087 333.974789,93.5936247 C332.570956,92.2907969 330.695984,92.0172751 328.678873,92 L307.5,92 L307.5,120 Z M329.017454,104.980771 C329.00308,105.257172 328.971138,105.569563 328.78428,105.79126 C328.464864,106.148278 327.945813,106.139659 327.311773,106.139659 L314.295574,106.139659 L314.295574,97.8288946 L327.311773,97.8288946 C327.944216,97.8404113 328.464864,97.8173779 328.78428,98.1859126 C328.971138,98.4018509 329.004677,98.7056041 329.017454,98.9877635 L329.017454,104.980771 Z" id="Shape"></path>
                                    <path d="M200.541048,98.4734975 C200.842328,98.1193769 201.360404,98.1380906 201.983689,98.125135 L221.5,98.125135 L221.5,92 L200.300342,92 C198.291802,92.0172742 196.423541,92.290782 195.001623,93.5935427 C193.581298,94.9092592 193.531882,96.8122976 193.5,97.9250424 L193.5,114.074958 C193.533476,115.189142 193.582892,117.102257 195.001623,118.410776 C196.425135,119.713537 198.291802,119.987044 200.300342,120 L214.693282,120 C216.70501,119.988484 218.573271,119.714976 219.988813,118.410776 C221.399573,117.102257 221.46493,115.189142 221.498406,114.074958 L221.498406,103.218138 L206.869542,103.218138 L206.869542,108.685415 L214.701252,108.685415 L214.701252,112.708858 C214.691688,112.993882 214.655024,113.306257 214.455764,113.519305 C214.144919,113.879184 213.625249,113.85903 213.00037,113.867667 L201.982095,113.867667 C201.357216,113.85903 200.840734,113.879184 200.539453,113.516426 C200.34657,113.306257 200.300342,112.993882 200.287589,112.708858 L200.287589,99.2853838 C200.300342,99.0075575 200.348164,98.6980618 200.541048,98.4734975 Z" id="Path"></path>
                                    <path d="M298.725935,112.943499 C298.702027,113.268829 298.761001,113.838877 298.469317,114.190119 C298.137787,114.552876 297.629333,114.525526 296.993368,114.538481 L284.280441,114.538481 L284.280441,92 L277.5,92 L277.5,120 L298.6829,120 C300.694399,119.991363 302.568822,119.717855 303.996955,118.410776 C305.410742,117.09218 305.466528,115.177626 305.5,114.060562 L305.5,92 L298.724341,92 L298.724341,112.943499 L298.725935,112.943499 Z" id="Path"></path>
                                    <path d="M275.98429,93.5935427 C274.578552,92.290782 272.696266,92.0172742 270.692851,92 L256.302368,92 C254.298953,92.0172742 252.42623,92.290782 251.010929,93.5935427 C249.595628,94.9092592 249.538251,96.8122976 249.5,97.929361 L249.5,114.074958 C249.538251,115.189142 249.597222,117.102257 251.010929,118.410776 C252.427823,119.713537 254.298953,119.987044 256.302368,120 L270.692851,120 C272.69786,119.988484 274.578552,119.714976 275.98429,118.410776 C277.410747,117.102257 277.471311,115.189142 277.5,114.074958 L277.5,97.9279214 C277.469718,96.8108581 277.409153,94.9078196 275.98429,93.5935427 Z M270.704007,112.708858 C270.691257,112.993882 270.654599,113.306257 270.469718,113.519305 C270.150956,113.879184 269.639344,113.85903 269.008197,113.867667 L257.998179,113.867667 C257.368625,113.85903 256.850638,113.879184 256.541439,113.519305 C256.345401,113.306257 256.302368,112.993882 256.283242,112.708858 L256.283242,99.2853838 C256.302368,99.0061179 256.345401,98.6966223 256.541439,98.4763765 C256.850638,98.1164979 257.370219,98.1438486 257.998179,98.1222559 L269.008197,98.1222559 C269.639344,98.1438486 270.150956,98.1164979 270.469718,98.4763765 C270.654599,98.6951828 270.692851,99.0046784 270.704007,99.2853838 L270.704007,112.708858 Z" id="Shape"></path>
                                    <path d="M152.990235,93.5935427 C151.584097,92.290782 149.701275,92.0172742 147.700478,92 L133.299522,92 C131.298725,92.0172742 129.425468,92.290782 128.009765,93.5935427 C126.592467,94.9092592 126.536668,96.8122976 126.5,97.929361 L126.5,114.074958 C126.535074,115.189142 126.592467,117.102257 128.009765,118.410776 C129.425468,119.713537 131.298725,119.987044 133.299522,120 L147.700478,120 C149.70287,119.988484 151.584097,119.714976 152.990235,118.410776 C154.417098,117.102257 154.472898,115.189142 154.5,114.074958 L154.5,97.9279214 C154.472898,96.8108581 154.417098,94.9078196 152.990235,93.5935427 Z M147.706855,112.708858 C147.700478,112.993882 147.655839,113.306257 147.467716,113.519305 C147.155241,113.879184 146.640295,113.85903 146.005779,113.867667 L134.992627,113.867667 C134.367676,113.85903 133.85273,113.879184 133.541849,113.519305 C133.348944,113.306257 133.299522,112.993882 133.283579,112.708858 L133.283579,99.2853838 C133.299522,99.0061179 133.348944,98.6966223 133.541849,98.4763765 C133.851136,98.1164979 134.367676,98.1438486 134.992627,98.1222559 L146.005779,98.1222559 C146.640295,98.1438486 147.156835,98.1164979 147.467716,98.4763765 C147.657433,98.6951828 147.700478,99.0046784 147.706855,99.2853838 L147.706855,112.708858 Z" id="Shape"></path>
                                    <path d="M98.9843759,93.5935427 C97.5819056,92.290782 95.6997268,92.0172742 93.6964255,92 L79.3067619,92 C77.2986795,92.0172742 75.4244692,92.290782 74.0188115,93.5935427 C72.5988104,94.9092592 72.5398429,96.8122976 72.5,97.929361 L72.5,114.074958 C72.5398429,115.189142 72.6004041,117.102257 74.0188115,118.410776 C75.4244692,119.713537 77.3002732,119.987044 79.3067619,120 L93.6964255,120 C95.7013205,119.988484 97.5819056,119.714976 98.9843759,118.410776 C100.413939,117.102257 100.466532,115.189142 100.5,114.074958 L100.5,97.9279214 C100.466532,96.8108581 100.413939,94.9078196 98.9843759,93.5935427 Z M93.7059878,112.708858 C93.6964255,112.993882 93.6629575,113.306257 93.4669304,113.519305 C93.154562,113.879184 92.6366042,113.85903 92.0070863,113.867667 L80.9976948,113.867667 C80.3697706,113.85903 79.8502191,113.879184 79.5458193,113.519305 C79.3529797,113.306257 79.3067619,112.993882 79.289231,112.708858 L79.289231,99.2853838 C79.3067619,99.0061179 79.3529797,98.6966223 79.5458193,98.4763765 C79.8502191,98.1164979 80.3697706,98.1438486 80.9976948,98.1222559 L92.0070863,98.1222559 C92.6350105,98.1438486 93.154562,98.1164979 93.4669304,98.4763765 C93.6629575,98.6951828 93.6964255,99.0046784 93.7059878,99.2853838 L93.7059878,112.708858 Z" id="Shape"></path>
                                </g>
                            </g>
                        </g>
                    </g>
                </g>
            </g>
        </g>
    </g>
</svg>