<?xml version="1.0" encoding="UTF-8"?>
<svg width="408px" height="59px" viewBox="0 0 408 59" version="1.1" xmlns="http://www.w3.org/2000/svg" xmlns:xlink="http://www.w3.org/1999/xlink">
    <!-- Generator: Sketch 63.1 (92452) - https://sketch.com -->
    <title>pf logo2</title>
    <desc>Created with Sketch.</desc>
    <g id="Design_KR" stroke="none" stroke-width="1" fill="none" fill-rule="evenodd">
        <g id="DT_WEB_1_INDEX_DESKTOP_KR-2560px" transform="translate(-1716.000000, -19648.000000)" fill="#FFFFFF">
            <g id="04_Case-Study" transform="translate(0.000000, 15717.000000)">
                <g id="Partners" transform="translate(0.000000, 3480.000000)">
                    <g id="portfolio-sub">
                        <g id="portfolio-sub2" transform="translate(1280.000000, 0.000000)">
                            <g id="pf-logo2" transform="translate(400.000000, 360.000000)">
                                <g id="Group-8">
                                    <g id="Logo" transform="translate(36.000000, 91.000000)">
                                        <path d="M32.2839968,27.1847776 C32.2839968,27.1847776 28.3743927,24.7435336 25.9550832,23.8060959 C25.9550832,23.8060959 18.464901,20.3102345 16.9746063,18.6306587 C16.9746063,18.6306587 14.0520805,15.8574055 15.7746288,12.6349634 C15.7746288,12.6349634 16.4907444,10.5257286 19.5681061,10.5257286 C19.5681061,10.5257286 23.5938371,10.7405581 23.5938371,14.0799846 L23.5938371,18.7868983 L37.9935672,18.7868983 L37.9742128,11.8732953 C37.9742128,11.8732953 39.0774179,0.545923187 21.0196918,0.0381444374 C21.0196918,0.0381444374 19.6648785,-0.0595053223 17.6713675,0.0576743893 C17.6713675,0.0576743893 6.73608854,0.643572947 2.8264844,6.69785804 C2.80712992,6.73691795 2.76842097,6.77597785 2.74906649,6.81503776 C2.74906649,6.81503776 1.16199946,8.53367352 1.16199946,14.5293688 L1.16199946,18.8648228 C1.16199946,18.8648228 0.987809179,23.8646858 3.52324553,27.0871279 C3.52324553,27.0871279 4.95547675,29.1963627 8.47799138,31.5202316 C8.47799138,31.5202316 15.6391475,35.4068874 19.9358412,37.6331066 C19.9358412,37.6331066 24.2712438,40.1331357 23.709964,44.097716 C23.709964,44.097716 23.3615834,48.1792806 19.1810166,48.0037064 C19.1810166,48.0037064 15.3488304,47.8277415 15.3488304,43.8241014 L15.3488304,39.1175782 L0.000730904133,39.1175782 L0.000730904133,45.9530614 C0.000730904133,45.9530614 -0.425067567,58.998874 19.277789,58.998874 C19.277789,58.998874 38.1096941,59.389473 39,45.6208569 L39,40.0743506 C38.9419366,40.0745459 39.5999888,31.6180767 32.2839968,27.1847776 L32.2839968,27.1847776 Z" id="Path-2"></path>
                                        <path d="M273.835999,43.5641843 C273.835999,43.5641843 274.046876,48.1110932 269.906011,48.1110932 C269.906011,48.1110932 265.554269,48.3450636 265.554269,43.6814622 L265.515927,2 L250.026024,2 L250.026024,43.3497277 C250.026024,43.3497277 248.434859,59 270.136059,59 C270.136059,59 289,59.2339553 289,44.071738 L289,2 L273.855169,2 L273.835999,43.5641843 Z" id="Path"></path>
                                        <polygon id="Path" points="341.340871 35.4841549 340.711055 35.4841549 325.811977 2.0193662 308 2.0193662 308 57 322.505444 57 321.639447 23.5352113 322.288945 23.5352113 337.71943 57 355 57 355 2 340.297739 2"></polygon>
                                        <path d="M389.643,26.8656397 L389.643,35.0179858 L393.536909,35.0179858 L393.536909,43.7568317 C393.536909,48.0380842 389.949909,48.1164797 389.949909,48.1164797 C385.595636,48.1164797 385.749091,44.0500816 385.749091,44.0500816 L385.749091,13.8062458 C385.749091,10.6977973 389.623818,10.5218473 389.623818,10.5218473 C393.345091,10.5218473 393.364273,14.2363456 393.364273,14.2363456 L393.364273,18.8305934 L407.673909,18.8305934 C408.134273,9.85714766 406.388727,7.68709868 406.388727,7.68709868 C402.840091,-0.426147504 389.412818,0.00395229379 389.412818,0.00395229379 C368.792364,0.00395229379 371.075,16.1326947 371.075,16.1326947 L371.075,45.3794809 C371.516182,60.5111738 391.829727,58.9667245 392.175,58.9471746 C401.209636,57.930575 403.933455,54.9980764 403.933455,54.9980764 C406.446273,53.1017273 407.098455,50.4624785 407.098455,50.4624785 C407.808182,48.9375793 408,44.0303361 408,44.0303361 L408,26.8460897 L389.643,26.8656397 Z" id="Path"></path>
                                        <polygon id="Path" points="62.4333782 2.01946903 53 57 68.2786003 57 73.8730372 14.3628319 75.1269628 14.3628319 80.7213997 57 96 57 86.5666218 2 62.4333782 2"></polygon>
                                        <polygon id="Path" points="148.882911 2 143.918671 32.2306338 142.742405 32.2306338 137.997468 2.27112676 113.236076 2.27112676 112 57 126.673418 57 126.852848 15.7693662 128.009177 15.7693662 135.784494 57 151.215506 57 158.891139 15.7887324 159.907911 15.7887324 160.266772 57 175 57 173.405063 2"></polygon>
                                        <path d="M223.326069,27.1835329 C223.326069,27.1835329 219.416058,24.7421934 216.996497,23.804719 C216.996497,23.804719 209.505535,20.3087208 208.015085,18.6290792 C208.015085,18.6290792 205.092256,15.8557176 206.795627,12.6331494 C206.795627,12.6331494 207.511817,10.5238321 210.589499,10.5238321 C210.589499,10.5238321 214.615648,10.73867 214.615648,14.0782271 L214.615648,18.785325 L229.016877,18.785325 L228.99752,11.8714515 C228.99752,11.8714515 230.10084,0.543636214 212.041235,0.0358375973 C212.041235,0.0358375973 197.833572,-0.901636772 193.768709,6.81299606 C193.768709,6.81299606 192.16212,8.53169907 192.16212,14.5276289 L192.16212,18.8632525 C192.16212,18.8632525 192.007268,23.8633111 194.523612,27.0858793 C194.523612,27.0858793 195.955992,29.1951966 199.478873,31.5191565 C199.478873,31.5191565 206.640775,35.4059643 210.937915,37.6322706 C210.937915,37.6322706 215.273769,40.1323976 214.712431,44.0971329 C214.712431,44.0971329 214.364014,48.1788573 210.163656,48.0032761 C210.163656,48.0032761 206.331071,47.8273044 206.331071,43.8235076 L206.331071,39.1361358 L191.000731,39.1361358 L191.000731,45.952551 C191.000731,45.952551 190.574888,58.998874 210.279795,58.998874 C210.279795,58.998874 229.113659,59.3894883 229.984701,45.6203335 L229.984701,40.0736101 C229.984701,40.0540794 230.642822,31.6170054 223.326069,27.1835329 L223.326069,27.1835329 Z" id="Path"></path>
                                    </g>
                                </g>
                            </g>
                        </g>
                    </g>
                </g>
            </g>
        </g>
    </g>
</svg>