<?xml version="1.0" encoding="UTF-8"?>
<svg width="394px" height="116px" viewBox="0 0 394 116" version="1.1" xmlns="http://www.w3.org/2000/svg" xmlns:xlink="http://www.w3.org/1999/xlink">
    <!-- Generator: Sketch 63.1 (92452) - https://sketch.com -->
    <title>pf logo3</title>
    <desc>Created with Sketch.</desc>
    <g id="Design_KR" stroke="none" stroke-width="1" fill="none" fill-rule="evenodd">
        <g id="DT_WEB_1_INDEX_DESKTOP_KR-2560px" transform="translate(-436.000000, -20579.000000)">
            <g id="04_Case-Study" transform="translate(0.000000, 15717.000000)">
                <g id="Partners" transform="translate(0.000000, 3480.000000)">
                    <g id="portfolio-sub">
                        <g id="portfolio-sub3" transform="translate(0.000000, 960.000000)">
                            <g id="pf-logo3" transform="translate(400.000000, 360.000000)">
                                <g id="Healingpaper-svg" transform="translate(36.000000, 62.000000)">
                                    <rect id="Container" x="0" y="0" width="408" height="116"></rect>
                                    <path d="M114.07986,0 L114.07986,116 L0,116 L0,0 L114.07986,0 Z M181.811461,65.4872728 C195.898997,65.4872728 195.898997,86.9472728 181.811461,86.9472728 L170.085112,86.9472728 L170.085112,98.2836363 L167.591274,98.2836363 L167.591274,65.4872728 L181.811461,65.4872728 Z M215.080332,65.4872728 L229.645412,98.2836363 L226.939332,98.2836363 L226.939332,98.2836363 L223.357753,90.2163637 L203.990708,90.2163637 L200.462192,98.2836363 L197.782641,98.2836363 L212.347722,65.4872728 L215.080332,65.4872728 Z M253.522592,65.4872728 C267.610128,65.4872728 267.610128,86.9472728 253.522592,86.9472728 L241.822774,86.9472728 L241.822774,98.2836363 L239.302404,98.2836363 L239.302404,65.4872728 L253.522592,65.4872728 Z M296.634167,65.4872728 L296.634167,67.8863637 L276.709987,67.8863637 L276.709987,80.62 L295.705609,80.62 L295.705609,82.9136363 L276.709987,82.9136363 L276.709987,95.8581819 L297.1913,95.8581819 L297.1913,98.2836363 L274.242678,98.2836363 L274.242678,65.4872728 L296.634167,65.4872728 Z M321.652146,65.4872728 C328.682648,65.4872728 332.264225,70.6018181 332.317286,75.7163637 C332.370347,81.0681819 328.89489,85.7345454 321.811327,85.7345454 L333.245843,98.2836363 L329.956099,98.2836363 L318.733824,85.8663637 L309.872736,85.8663637 L309.872736,98.2836363 L307.378897,98.2836363 L307.378897,65.4872728 L321.652146,65.4872728 Z M31.8362401,26.97 L23.8771801,26.97 L23.8771801,89.03 L31.8362401,89.03 L31.8362401,26.97 Z M50.40738,26.97 L42.44832,26.97 L42.44832,89.03 L50.40738,89.03 L50.40738,26.97 Z M68.9785202,26.97 L61.0194601,26.97 L61.0194601,89.03 L68.9785202,89.03 L68.9785202,26.97 Z M213.700761,67.9127272 L204.998825,87.87 L222.402666,87.87 L222.402666,87.87 L213.700761,67.9127272 Z M181.811461,67.8336363 L170.085112,67.8336363 L170.085112,84.6536363 L181.811461,84.6536363 C192.609252,84.6536363 192.609252,67.8336363 181.811461,67.8336363 Z M253.549121,67.8336363 L241.822774,67.8336363 L241.822774,84.6536363 L253.549121,84.6536363 C264.346913,84.6536363 264.346913,67.8336363 253.549121,67.8336363 Z M321.652146,67.8072728 L309.872736,67.8072728 L309.899267,83.4672728 L321.386843,83.4672728 C327.037777,83.4672728 329.531615,80.2245454 329.584674,75.6372728 C329.637735,71.7881819 327.037777,67.8072728 321.652146,67.8072728 Z M87.5496601,26.97 L79.5906001,26.97 L79.5906001,59.3445454 L87.5496601,59.3445454 L87.5496601,26.97 Z M381.079793,16.2927273 C385.430746,16.2927273 389.7817,17.98 393.124503,21.3018181 L389.330685,25.2563637 C387.15521,23.1472728 383.918524,21.9872728 381.079793,21.9872728 C374.128881,21.9872728 369.910579,27.3390909 369.910579,34.0881819 C369.910579,39.4663637 373.014613,45.0554546 381.079793,45.0554546 C383.626692,45.0554546 385.85523,44.5018181 388.402129,42.4190909 L388.402129,36.6190909 L380.098176,36.6190909 L380.098176,31.0827272 L394,31.0827272 L394,44.8972728 C390.789846,48.5881819 386.757256,50.8027272 381.079793,50.8027272 C368.902431,50.8027272 363.941283,42.6827272 363.941283,34.0618181 C363.941283,24.8345454 369.645278,16.2927273 381.079793,16.2927273 Z M354.284291,15.6863636 L354.284291,50.1963637 L350.463943,50.1963637 L350.463943,50.2490909 L333.272373,26.9436363 L333.272373,50.17 L327.117367,50.17 L327.117367,15.7390909 L332.105044,15.7390909 L348.129286,37.0936363 L348.129286,15.6863636 L354.284291,15.6863636 Z M173.242206,15.6863636 L173.242206,28.7890909 L188.656252,28.7890909 L188.656252,15.6863636 L194.519427,15.6863636 L194.519427,46.7954546 L188.656252,46.7954546 L188.656252,34.22 L173.242206,34.22 L173.242206,46.7954546 L167.325972,46.7954546 L167.325972,15.6863636 L173.242206,15.6863636 Z M228.504613,15.6863636 L228.504613,21.3809091 L210.649788,21.3809091 L210.649788,28.5518181 L227.867888,28.5518181 L227.867888,34.0090909 L210.649788,34.0090909 L210.649788,41.0218181 L228.504613,41.0218181 L228.504613,46.7954546 L204.707024,46.7954546 L204.707024,15.6863636 L228.504613,15.6863636 Z M255.485827,15.6863636 L269.30806,46.7954546 L262.967342,46.7954546 L260.367384,40.9163637 L244.263552,40.9163637 L241.610532,46.7954546 L235.322873,46.7954546 L249.145109,15.6863636 L255.485827,15.6863636 Z M285.889436,15.6863636 L285.889436,41.3645454 L303.293247,41.3645454 L303.293247,46.7954546 L279.495658,46.7954546 L279.495658,15.6863636 L285.889436,15.6863636 Z M316.90324,15.6863636 L316.90324,46.7954546 L310.111509,46.7954546 L310.111509,15.6863636 L316.90324,15.6863636 Z M252.302202,22.2245454 L246.57168,35.4590909 L258.032726,35.4590909 L252.302202,22.2245454 Z" id="Shape" fill="#FFFFFF" fill-rule="nonzero"></path>
                                </g>
                            </g>
                        </g>
                    </g>
                </g>
            </g>
        </g>
    </g>
</svg>
