<?xml version="1.0" encoding="UTF-8"?>
<svg width="180px" height="160px" viewBox="0 0 180 160" version="1.1" xmlns="http://www.w3.org/2000/svg" xmlns:xlink="http://www.w3.org/1999/xlink">
    <!-- Generator: Sketch 63.1 (92452) - https://sketch.com -->
    <title>pf logo4</title>
    <desc>Created with Sketch.</desc>
    <g id="Design_KR" stroke="none" stroke-width="1" fill="none" fill-rule="evenodd">
        <g id="DT_WEB_1_INDEX_DESKTOP_KR-2560px" transform="translate(-1830.000000, -20557.000000)" fill="#FFFFFF" fill-rule="nonzero">
            <g id="04_Case-Study" transform="translate(0.000000, 15717.000000)">
                <g id="Partners" transform="translate(0.000000, 3480.000000)">
                    <g id="portfolio-sub">
                        <g id="portfolio-sub4" transform="translate(1280.000000, 960.000000)">
                            <g id="pf-logo4" transform="translate(400.000000, 360.000000)">
                                <path d="M173.068708,200 L178.964044,162.939297 L212.798149,162.939297 L219.206123,200 L242.53115,200 L212.029192,40 L178.451406,40 L150,200 L173.068708,200 Z M209.722321,144.28115 L181.783553,144.28115 L195.11214,59.9361022 L209.722321,144.28115 Z M305.906016,200 C321.968672,200 330,192.502662 330,177.507987 L330,177.507987 L330,40 L306.674973,40 L306.674973,173.929712 C306.674973,176.996805 306.205055,178.998935 305.265219,179.936102 C304.325383,180.873269 302.232111,181.341853 298.985404,181.341853 L298.985404,181.341853 L284.375222,181.341853 C281.299395,181.341853 279.248843,180.873269 278.223567,179.936102 C277.198291,178.998935 276.685653,176.996805 276.685653,173.929712 L276.685653,173.929712 L276.685653,40 L253.360627,40 L253.360627,177.507987 C253.360627,192.502662 261.391954,200 277.45461,200 L277.45461,200 L305.906016,200 Z" id="AU"></path>
                            </g>
                        </g>
                    </g>
                </g>
            </g>
        </g>
    </g>
</svg>