<?xml version="1.0" encoding="UTF-8"?>
<svg width="320px" height="110px" viewBox="0 0 320 110" version="1.1" xmlns="http://www.w3.org/2000/svg" xmlns:xlink="http://www.w3.org/1999/xlink">
    <!-- Generator: Sketch 63.1 (92452) - https://sketch.com -->
    <title>pf logo5</title>
    <desc>Created with Sketch.</desc>
    <g id="Design_KR" stroke="none" stroke-width="1" fill="none" fill-rule="evenodd">
        <g id="DT_WEB_1_INDEX_DESKTOP_KR-2560px" transform="translate(-480.000000, -21542.000000)" fill="#FFFFFF">
            <g id="04_Case-Study" transform="translate(0.000000, 15717.000000)">
                <g id="Partners" transform="translate(0.000000, 3480.000000)">
                    <g id="portfolio-sub">
                        <g id="portfolio-sub5" transform="translate(0.000000, 1920.000000)">
                            <g id="pf-logo5" transform="translate(400.000000, 360.000000)">
                                <g id="Logo" transform="translate(80.000000, 65.000000)">
                                    <path d="M110.358506,0 L93.6414936,0 C91.0780365,0 89,2.02112269 89,4.50906636 L89,105.501543 C89,107.984182 91.0780365,110 93.6414936,110 L110.358506,110 C112.921963,110 115,107.984182 115,105.501543 L115,4.50906636 C115,2.02112269 112.921963,0 110.358506,0" id="Fill-1"></path>
                                    <path d="M223.490146,0 L207.252553,0 C204.7618,0 202.742699,2.02112269 202.742699,4.50906636 L202.742699,64.5061728 L156.504775,2.00520833 C156.398786,1.84606481 156.276898,1.69222608 156.15501,1.54899691 L156.123213,1.51716821 C156.033122,1.4216821 155.94833,1.33150077 155.85294,1.24131944 C155.826442,1.21479552 155.805244,1.19357639 155.773447,1.16705247 C155.693955,1.09809028 155.614463,1.0238233 155.529672,0.965470679 C155.492575,0.933641975 155.450179,0.901813272 155.413083,0.869984568 C155.33889,0.816936728 155.259398,0.763888889 155.179906,0.710841049 C155.13751,0.68431713 155.095115,0.65779321 155.04212,0.63126929 C154.962628,0.583526235 154.883136,0.535783179 154.803643,0.498649691 C154.755948,0.472125772 154.708253,0.450906636 154.660558,0.424382716 C154.575766,0.387249228 154.490974,0.344810957 154.400883,0.318287037 C154.347888,0.302372685 154.305493,0.281153549 154.257797,0.265239198 C154.167706,0.233410494 154.077615,0.20158179 153.987524,0.17505787 C153.934529,0.159143519 153.886834,0.148533951 153.82854,0.137924383 C153.743748,0.111400463 153.658957,0.100790895 153.574165,0.0795717593 C153.510571,0.0689621914 153.441678,0.0636574074 153.383384,0.0530478395 C153.303892,0.0371334877 153.2244,0.0318287037 153.144908,0.0265239198 C153.065415,0.0159143519 152.991223,0.0106095679 152.911731,0.0106095679 C152.853436,0.0106095679 152.805741,0 152.752746,0 L136.515153,0 C134.0244,0 132,2.02112269 132,4.50906636 L132,105.501543 C132,107.984182 134.0244,110 136.515153,110 L152.752746,110 C155.2435,110 157.2679,107.984182 157.2679,105.501543 L157.2679,45.5203511 L203.553519,108.100887 C203.876787,108.551794 204.268948,108.917824 204.698206,109.209587 C204.714104,109.220197 204.735302,109.236111 204.745901,109.246721 C204.835992,109.305073 204.931383,109.363426 205.026773,109.416474 C205.069169,109.442998 205.106266,109.464217 205.153961,109.485436 C205.222854,109.522569 205.291747,109.554398 205.371239,109.591532 C205.445432,109.618056 205.509026,109.655189 205.588518,109.681713 C205.636213,109.702932 205.678609,109.724151 205.721005,109.734761 C205.826994,109.76659 205.932984,109.803723 206.028374,109.830247 C206.054872,109.835552 206.07607,109.846161 206.097267,109.846161 C206.462931,109.946952 206.849793,110 207.252553,110 L223.490146,110 C225.986199,110 228,107.984182 228,105.501543 L228,4.50906636 C228,2.02112269 225.986199,0 223.490146,0" id="Fill-3"></path>
                                    <path d="M70.4281411,84.7133144 L25.6400602,84.7133144 L25.6400602,4.51415345 C25.6400602,2.02102522 23.5907917,0 21.0628227,0 L4.58261618,0 C2.05464716,0 0,2.02102522 0,4.51415345 L0,105.485847 L0,105.491151 C0,106.705888 0.494836489,107.803925 1.28549914,108.610214 C1.30163511,108.631432 1.31777108,108.657954 1.34466437,108.679172 C1.366179,108.700391 1.39307229,108.716304 1.41458692,108.737522 C2.23752151,109.522592 3.34552496,110 4.57185886,110 L4.58261618,110 L70.4281411,110 C72.9561102,110 75,107.978975 75,105.485847 L75,89.2274678 C75,86.7343396 72.9561102,84.7133144 70.4281411,84.7133144" id="Fill-5"></path>
                                    <path d="M315.428141,25.2919902 C317.95611,25.2919902 320,23.2709649 320,20.7725322 L320,4.51945797 C320,2.02632975 317.95611,0 315.428141,0 L249.582616,0 L249.571859,0 C248.334768,0 247.221386,0.488016589 246.398451,1.27839128 C246.382315,1.29960939 246.3608,1.31021845 246.344664,1.32082751 C246.317771,1.35265468 246.290878,1.37917732 246.274742,1.40569996 C245.489458,2.21198823 245,3.30472103 245,4.51415345 L245,4.51945797 L245,105.485847 L245,105.491151 C245,106.705888 245.494836,107.803925 246.285499,108.610214 C246.301635,108.631432 246.32315,108.657954 246.344664,108.684477 C246.366179,108.700391 246.387694,108.721609 246.414587,108.737522 C247.232143,109.517288 248.345525,110 249.571859,110 L249.582616,110 L315.428141,110 C317.95611,110 320,107.978975 320,105.485847 L320,89.2327723 C320,86.7396441 317.95611,84.7133144 315.428141,84.7133144 L270.645439,84.7133144 L270.645439,67.6433428 L315.428141,67.6433428 C317.95611,67.6433428 320,65.6276221 320,63.1291894 L320,46.8708106 C320,44.3829869 317.95611,42.3566572 315.428141,42.3566572 L270.645439,42.3566572 L270.645439,25.2919902 L315.428141,25.2919902 Z" id="Fill-8"></path>
                                </g>
                            </g>
                        </g>
                    </g>
                </g>
            </g>
        </g>
    </g>
</svg>