<svg xmlns="http://www.w3.org/2000/svg" width="76" height="76" viewBox="0 0 76 76">
    <g fill="none" fill-rule="evenodd">
        <path d="M0 0H108V108H0z" transform="translate(-16 -16)"/>
        <path fill="#000046" fill-rule="nonzero" d="M87.615 16.2h-67.23c-1.112-.007-2.18.431-2.967 1.218-.787.786-1.225 1.855-1.218 2.967v67.257c0 1.107.442 2.17 1.227 2.95.786.78 1.85 1.215 2.958 1.208H56.7V62.532h-9.963V51.111H56.7v-8.397c0-9.774 5.967-15.093 14.661-15.093 2.94-.023 5.88.13 8.802.459v10.206h-6.129c-4.752 0-5.67 2.241-5.67 5.535v7.29h11.313L78.3 62.532h-9.936V91.8h19.278c1.107 0 2.17-.442 2.95-1.227.78-.786 1.215-1.85 1.208-2.958v-67.23c.007-1.112-.431-2.18-1.218-2.967-.786-.787-1.855-1.225-2.967-1.218z" transform="translate(-16 -16)"/>
    </g>
</svg>
