<svg xmlns="http://www.w3.org/2000/svg" width="82" height="82" viewBox="0 0 82 82">
    <g fill="none" fill-rule="evenodd">
        <path d="M0 0H108V108H0z" transform="translate(-13 -13)"/>
        <path fill="#000046" fill-rule="nonzero" d="M54 40.5c-7.456 0-13.5 6.044-13.5 13.5S46.544 67.5 54 67.5 67.5 61.456 67.5 54 61.456 40.5 54 40.5z" transform="translate(-13 -13)"/>
        <path fill="#000046" fill-rule="nonzero" d="M94.257 37.314c-.648-14.715-8.829-22.896-23.544-23.571C66.366 13.5 64.989 13.5 54 13.5s-12.366 0-16.686.243c-14.715.675-22.896 8.829-23.571 23.544C13.5 41.634 13.5 43.011 13.5 54s0 12.366.243 16.686c.675 14.715 8.829 22.896 23.544 23.571 4.347.243 5.724.243 16.713.243s12.366 0 16.713-.243c14.688-.675 22.869-8.829 23.544-23.571.243-4.32.243-5.697.243-16.686s0-12.366-.243-16.686zM54 74.79c-11.482 0-20.79-9.308-20.79-20.79S42.518 33.21 54 33.21 74.79 42.518 74.79 54 65.482 74.79 54 74.79zm21.6-37.557c-2.684 0-4.86-2.176-4.86-4.86s2.176-4.86 4.86-4.86 4.86 2.176 4.86 4.86c.007 1.291-.502 2.532-1.415 3.445-.913.913-2.154 1.422-3.445 1.415z" transform="translate(-13 -13)"/>
    </g>
</svg>
