<?xml version="1.0" encoding="UTF-8"?>
<svg width="360px" height="360px" viewBox="0 0 360 360" version="1.1" xmlns="http://www.w3.org/2000/svg" xmlns:xlink="http://www.w3.org/1999/xlink">
    <!-- Generator: Sketch 63.1 (92452) - https://sketch.com -->
    <title>Sub4_story</title>
    <desc>Created with Sketch.</desc>
    <g id="Sub4_story" stroke="none" stroke-width="1" fill="none" fill-rule="evenodd">
        <rect id="Container" x="0" y="0" width="360" height="360"></rect>
        <path d="M48.0004938,272.80038 C48.0004938,294.639393 65.7041975,312.343096 87.5422222,312.343096 C109.380247,312.343096 127.083951,294.639393 127.083951,272.80038 C127.083951,250.962356 109.380247,233.258652 87.5422222,233.258652 C65.7041975,233.258652 48.0004938,250.962356 48.0004938,272.80038" id="Fill-1" fill="#FE6565"></path>
        <path d="M251.745528,41.343188 L317.533721,107.116099 L260.335721,164.299188 L228.947501,240.505117 L79.5337215,279.343188 L118.380803,129.963111 L194.415721,98.658188 L251.745528,41.343188 Z M195.904721,106.683188 L125.110842,135.830668 L92.6747215,260.555188 L156.229328,197.014682 C151.235369,189.443618 151.993355,179.195639 158.503435,172.43696 L158.769709,172.165685 C166.402609,164.535796 178.722044,164.447076 186.463933,171.899526 L186.73526,172.165685 L187.001534,172.43696 C194.457196,180.17733 194.368441,192.494249 186.735489,200.125427 C179.980511,206.878836 169.554891,207.725136 161.879944,202.664328 L98.3247215,266.203188 L223.07728,233.776346 L252.231997,162.99747 L195.904721,106.683188 Z M180.849246,177.584885 C176.2312,173.215598 168.94365,173.292249 164.419497,177.814618 C159.817164,182.415882 159.817164,189.875459 164.419497,194.476723 C169.02183,199.077987 176.48314,199.077987 181.085473,194.476723 C185.6098,189.953447 185.686484,182.667928 181.315523,178.051016 L181.085473,177.814618 L180.849246,177.584885 Z M218.309051,86.0674692 L202.446249,101.925588 L256.935305,156.401987 L272.797108,140.542869 L218.309051,86.0674692 Z M251.744587,52.6397007 L223.959721,80.418188 L278.447271,134.895018 L306.233643,107.116099 L251.744587,52.6397007 Z" id="Shape" fill="#202040" fill-rule="nonzero"></path>
    </g>
</svg>