<svg xmlns="http://www.w3.org/2000/svg" width="40" height="40" viewBox="0 0 40 40">
    <path fill="#FFF" fill-rule="evenodd" d="M20.328 2.623c9.778 0 17.705 7.927 17.705 17.705 0 9.778-7.927 17.705-17.705 17.705-9.778 0-17.705-7.927-17.705-17.705 0-9.778 7.927-17.705 17.705-17.705zm-3.974 11.619H10.37v12.172h5.581c.628 0 1.211-.055 1.75-.165.537-.109 1.004-.313 1.399-.61.35-.258.642-.578.876-.957.37-.572.551-1.22.551-1.942 0-.698-.16-1.293-.483-1.783-.32-.492-.798-.849-1.429-1.075.417-.209.731-.44.944-.693.383-.452.573-1.048.573-1.792 0-.721-.188-1.342-.567-1.859-.632-.843-1.701-1.272-3.21-1.296zm9.526 2.842c-1.302 0-2.358.401-3.176 1.209-.815.806-1.221 1.963-1.221 3.476 0 1.613.452 2.776 1.353 3.493.904.714 1.946 1.073 3.128 1.073 1.43 0 2.544-.425 3.338-1.273.513-.534.798-1.059.86-1.576h-2.369c-.137.254-.296.455-.477.598-.33.27-.76.4-1.288.4-.5 0-.927-.107-1.28-.327-.583-.35-.891-.964-.927-1.84h6.463c.012-.755-.016-1.333-.076-1.731-.11-.684-.344-1.284-.708-1.804-.403-.59-.914-1.018-1.532-1.29-.62-.273-1.316-.408-2.088-.408zm-9.993 3.972c.531.005.946.073 1.24.206.525.235.788.672.788 1.304 0 .75-.272 1.255-.814 1.52-.3.145-.717.214-1.255.214h-2.619v-3.244zm9.993-2.093c.548 0 1.008.158 1.376.472.37.314.577.772.62 1.378h-4c.085-.57.29-1.019.62-1.35.327-.331.787-.5 1.384-.5zm-10.346-2.608c.592 0 1.08.065 1.463.19.444.182.665.558.665 1.124 0 .512-.167.87-.502 1.07-.336.201-.772.302-1.31.302h-2.623v-2.686zm12.823-1.608h-4.991v1.217h4.99v-1.217z"/>
</svg>
