<svg xmlns="http://www.w3.org/2000/svg" width="91" height="91" viewBox="0 0 91 91">
    <g fill="none" fill-rule="evenodd" transform="translate(-9 -9)">
        <circle cx="54.4" cy="54.4" r="44.8" fill="#000046"/>
        <path fill="#FFF" fill-rule="nonzero" d="M37.312 43.98c.056-.544-.154-1.082-.564-1.448l-4.183-4.987V36.8h12.988l10.04 21.79 8.825-21.79H76.8v.745l-3.576 3.394c-.309.232-.462.615-.398.993v24.936c-.064.378.09.76.398.993l3.492 3.394V72H59.148v-.745l3.618-3.477c.356-.351.356-.455.356-.993V46.63l-10.06 25.287h-1.36L39.99 46.63v16.948c-.098.712.141 1.43.648 1.945l4.706 5.65v.744H32v-.745l4.706-5.65c.503-.515.728-1.237.606-1.944V43.98z"/>
    </g>
</svg>
