<svg xmlns="http://www.w3.org/2000/svg" width="91" height="90" viewBox="0 0 91 90">
    <g fill="none" fill-rule="evenodd">
        <path d="M0 0H108V108H0z" transform="translate(-8 -10)"/>
        <path fill="#000046" d="M53.6 10.4c24.742 0 44.8 20.058 44.8 44.8 0 24.742-20.058 44.8-44.8 44.8-24.742 0-44.8-20.058-44.8-44.8 0-24.742 20.058-44.8 44.8-44.8zm-9.296 30.1H29.7v29.7h13.619c1.532 0 2.955-.135 4.27-.401 1.31-.267 2.45-.765 3.412-1.492.855-.628 1.566-1.408 2.14-2.332.9-1.397 1.343-2.977 1.343-4.74 0-1.703-.393-3.155-1.179-4.35-.78-1.2-1.947-2.07-3.486-2.624 1.016-.508 1.783-1.07 2.302-1.69.934-1.104 1.398-2.557 1.398-4.372 0-1.76-.458-3.274-1.383-4.536-1.541-2.057-4.15-3.104-7.832-3.163zm23.244 6.934c-3.177 0-5.753.98-7.75 2.95-1.989 1.967-2.98 4.791-2.98 8.482 0 3.936 1.104 6.773 3.302 8.522 2.206 1.744 4.748 2.618 7.631 2.618 3.49 0 6.208-1.037 8.146-3.105 1.251-1.302 1.947-2.583 2.099-3.846h-5.781c-.335.62-.724 1.112-1.163 1.46-.808.657-1.856.976-3.143.976-1.22 0-2.263-.262-3.122-.798-1.425-.856-2.177-2.351-2.264-4.49h15.771c.027-1.842-.04-3.252-.187-4.223-.266-1.67-.838-3.134-1.727-4.4-.982-1.44-2.23-2.486-3.739-3.151-1.514-.665-3.21-.995-5.093-.995zm-24.383 9.692c1.296.012 2.307.178 3.024.504 1.281.572 1.923 1.639 1.923 3.181 0 1.83-.663 3.062-1.985 3.71-.734.351-1.75.52-3.063.52h-6.39v-7.915zm24.383-5.106c1.337 0 2.459.385 3.356 1.152.905.765 1.408 1.883 1.514 3.362h-9.76c.206-1.39.706-2.487 1.51-3.294.8-.809 1.924-1.22 3.38-1.22zm-25.246-6.363c1.446 0 2.638.158 3.57.465 1.084.441 1.624 1.358 1.624 2.74 0 1.25-.408 2.121-1.226 2.611-.82.49-1.882.736-3.197.736h-6.399v-6.552zm31.288-3.925H61.412v2.97H73.59v-2.97z" transform="translate(-8 -10)"/>
    </g>
</svg>
