<?xml version="1.0" encoding="UTF-8"?>
<svg width="360px" height="360px" viewBox="0 0 360 360" version="1.1" xmlns="http://www.w3.org/2000/svg" xmlns:xlink="http://www.w3.org/1999/xlink">
    <!-- Generator: Sketch 63.1 (92452) - https://sketch.com -->
    <title>Sub3_tangible</title>
    <desc>Created with Sketch.</desc>
    <g id="Sub3_tangible" stroke="none" stroke-width="1" fill="none" fill-rule="evenodd">
        <rect id="Container-" x="0" y="0" width="360" height="360"></rect>
        <path d="M264.507733,113.099786 C264.507733,135.190353 282.416391,153.099786 304.508233,153.099786 C326.599075,153.099786 344.507733,135.190353 344.507733,113.099786 C344.507733,91.0082211 326.599075,73.0997864 304.508233,73.0997864 C282.416391,73.0997864 264.507733,91.0082211 264.507733,113.099786" id="Fill-9" fill="#FE6565"></path>
        <path d="M220.981568,264.52249 L220.808186,264.245397 L220.694331,264.443576 C212.281219,278.791548 201.605122,286.798313 188.711545,286.99624 L188.22085,287 C174.789835,287 163.490514,279.196104 154.426559,265.025264 L153.933753,264.244399 L153.819942,264.443579 C145.406813,278.791551 134.730703,286.798313 121.837113,286.99624 L121.346417,287 C107.915409,287 96.616092,279.196102 87.5521452,265.025262 L87.0603184,264.245397 L86.9458447,264.443586 C78.5326528,278.791557 67.8564324,286.798313 54.9626864,286.99624 L54.4719846,287 C44.8749384,287 36.2301342,283.045764 28.7249199,275.614815 C24.18813,271.124737 20.084485,265.382534 16.4068709,258.501253 L16,257.731984 L23.0751589,254.032081 C26.497689,260.570537 30.2690035,265.91121 34.3438189,269.94407 C40.2958409,275.837195 46.8169025,278.887171 54.0024208,279.014289 L54.4719846,279.018834 C65.3832935,279.018834 74.7918569,270.82714 82.2278381,256.453272 L82.4769244,255.961944 L82.3468407,255.696681 C81.9340905,254.85297 81.5271144,253.993705 81.1259259,253.119073 L80.8261199,252.460221 C72.3763925,233.742318 66.6710404,208.3197 64.1175173,180.362807 C61.7717669,154.680685 62.2907552,128.521778 65.4701619,108.553822 C69.0210687,86.2526972 75.4162866,73 85.606135,73 C95.256396,73 101.444967,85.6644398 105.185974,107.203676 L105.410829,108.526621 C108.73031,128.485303 109.612076,154.629603 107.759482,180.287252 C105.741319,208.237958 100.680943,233.643932 92.8997444,252.350938 C92.4399698,253.456296 91.9710839,254.53774 91.4930982,255.594899 L91.3861958,255.827262 L91.7243156,256.43937 C99.5938806,270.503254 109.36958,278.651514 120.579862,279.006714 L121.346417,279.018834 C132.25755,279.018834 141.666008,270.827116 149.101934,256.453232 L149.351357,255.961944 L149.221249,255.696683 C148.808499,254.852971 148.401522,253.993707 148.000333,253.119075 L147.700527,252.460223 C139.250793,233.742329 133.545426,208.31972 130.991872,180.362811 C128.646097,154.680716 129.16504,128.521808 132.344386,108.553835 L132.560857,107.226658 L132.779665,105.947289 C136.407668,85.223867 142.693857,73 152.480105,73 C162.326424,73 168.569001,86.1839404 172.284982,108.526621 C175.604455,128.485259 176.486187,154.629552 174.633554,180.287257 C172.615356,208.237922 167.554966,233.643912 159.773803,252.350931 C159.314031,253.456289 158.845148,254.537733 158.367165,255.594892 L158.260629,255.826264 L158.598733,256.439385 C166.468306,270.503263 176.244008,278.651515 187.454295,279.006714 L188.22085,279.018834 C199.131969,279.018834 208.540415,270.827107 215.976323,256.453217 L216.22579,255.961944 L216.095165,255.696702 C215.682408,254.852991 215.275426,253.993726 214.874231,253.119095 L214.57442,252.460243 C206.124559,233.742344 200.419106,208.319731 197.865513,180.362817 C195.519703,154.680717 196.038654,128.521804 199.218048,108.553825 C202.768935,86.2527088 209.164154,73 219.354006,73 C229.200406,73 235.44308,86.1839403 239.159133,108.526609 C242.478667,128.485227 243.36045,154.629519 241.50785,180.287252 C239.489691,208.237899 234.429326,233.6439 226.648179,252.350928 C226.188408,253.456285 225.719526,254.53773 225.241544,255.594889 L225.135061,255.827262 L225.472675,256.439387 C233.342372,270.503265 243.118234,278.651515 254.328714,279.006714 L255.095283,279.018834 C273.426589,279.018834 287.654647,257.010775 295.650957,219.202323 C302.563795,186.516786 303.845435,145.106625 299.494196,114.505622 L299.330463,113.377231 L307.229461,112.208961 C311.913385,143.847821 310.658433,186.832787 303.463315,220.853011 C294.845835,261.598502 278.925346,286.498585 255.798308,286.992512 L255.095283,287 C241.506091,287 230.099056,279.01141 220.981568,264.52249 Z M219.354006,80.9811659 C215.076086,80.9811659 210.028197,91.4418248 207.103814,109.808226 C204.034942,129.082071 203.529036,154.583468 205.817449,179.637183 C208.201497,205.737912 213.11617,228.219703 220.079958,245.165471 L220.530707,246.245872 L220.636212,245.976801 C227.026989,229.332794 231.432097,207.205277 233.412306,181.472799 L233.543557,179.712748 C235.352889,154.654267 234.492197,129.135302 231.282227,109.835443 L231.093294,108.723667 C228.032355,91.0915787 223.167194,80.9811659 219.354006,80.9811659 Z M85.606135,80.9811659 C81.3282166,80.9811659 76.2803264,91.4418197 73.3559266,109.808229 C70.2870428,129.082056 69.7810995,154.583451 72.069455,179.637193 C74.4906871,206.145717 79.5222192,228.921352 86.6596109,245.955722 L86.7828394,246.245872 L86.8877685,245.976867 C93.2785985,229.332874 97.6837231,207.205351 99.6639371,181.472804 L99.7951889,179.712748 C101.604515,154.654344 100.743839,129.135364 97.533919,109.83543 L97.3449898,108.723658 L97.1492995,107.620082 C94.0797433,90.6704091 89.3387936,80.9811659 85.606135,80.9811659 Z M152.480105,80.9811659 C148.202311,80.9811659 143.154492,91.4418352 140.230155,109.808217 C137.161328,129.082067 136.655429,154.583469 138.943809,179.637189 C141.365071,206.145734 146.39662,228.921372 153.534022,245.955739 L153.656274,246.244874 L153.761834,245.976819 C160.152631,229.332815 164.557764,207.205295 166.538008,181.472796 L166.669262,179.712743 C168.478625,154.654285 167.617983,129.135315 164.408072,109.83543 L164.219143,108.723656 C161.158268,91.0915954 156.293176,80.9811659 152.480105,80.9811659 Z" id="Shape" fill="#202040" fill-rule="nonzero"></path>
    </g>
</svg>