<svg xmlns="http://www.w3.org/2000/svg" width="40" height="40" viewBox="0 0 40 40">
    <g fill="none" fill-rule="evenodd">
        <path d="M0 0H40V40H0z"/>
        <path fill="#FFF" d="M19.852 3.852c9.164 0 16.592 7.429 16.592 16.592 0 9.164-7.428 16.593-16.592 16.593-9.164 0-16.593-7.429-16.593-16.593 0-9.163 7.429-16.592 16.593-16.592zM16.409 15H11v11h5.044c.568 0 1.095-.05 1.581-.149.486-.098.908-.283 1.264-.552.317-.233.58-.522.793-.864.333-.517.497-1.103.497-1.755 0-.631-.145-1.169-.436-1.611-.29-.445-.722-.767-1.292-.972.377-.188.66-.397.853-.626.346-.409.518-.947.518-1.62 0-.651-.17-1.212-.512-1.68-.571-.761-1.538-1.15-2.901-1.171zm8.609 2.568c-1.177 0-2.131.363-2.87 1.093-.737.728-1.104 1.774-1.104 3.141 0 1.458.409 2.509 1.223 3.157.817.645 1.758.97 2.826.97 1.293 0 2.3-.385 3.017-1.151.463-.482.721-.956.777-1.424h-2.14c-.125.23-.269.412-.432.54-.299.244-.687.362-1.164.362-.452 0-.838-.097-1.156-.296-.528-.317-.806-.87-.838-1.662h5.84c.01-.683-.014-1.205-.068-1.565-.1-.618-.31-1.16-.64-1.63-.364-.532-.826-.92-1.385-1.166-.56-.246-1.19-.369-1.886-.369zm-9.031 3.59c.48.004.855.066 1.12.186.475.212.712.607.712 1.179 0 .677-.245 1.134-.735 1.373-.272.13-.648.193-1.134.193h-2.367v-2.931zm9.03-1.891c.496 0 .911.142 1.244.426.335.283.521.698.56 1.245h-3.614c.076-.514.261-.92.56-1.22.295-.299.711-.451 1.25-.451zm-9.35-2.357c.536 0 .978.059 1.323.172.4.164.601.503.601 1.015 0 .463-.151.786-.454.967-.303.182-.697.273-1.184.273h-2.37V16.91zm11.589-1.454h-4.51v1.1h4.51v-1.1z"/>
    </g>
</svg>
