<?xml version="1.0" encoding="UTF-8"?>
<svg width="360px" height="360px" viewBox="0 0 360 360" version="1.1" xmlns="http://www.w3.org/2000/svg" xmlns:xlink="http://www.w3.org/1999/xlink">
    <!-- Generator: Sketch 63.1 (92452) - https://sketch.com -->
    <title>Sub2_idea</title>
    <desc>Created with Sketch.</desc>
    <g id="Sub2_idea" stroke="none" stroke-width="1" fill="none" fill-rule="evenodd">
        <rect id="Container" x="0" y="0" width="360" height="360"></rect>
        <path d="M140,141 C140,163.090566 157.908658,181 180.0005,181 C202.091342,181 220,163.090566 220,141 C220,118.908435 202.091342,101 180.0005,101 C157.908658,101 140,118.908435 140,141" id="Fill-1" fill="#FE6565"></path>
        <path d="M180,45 C233.02041,45 276,87.8759433 276,140.764029 C276,177.087763 255.537352,209.668747 224.001441,225.899818 L224,293 L213.670811,293.000595 C207.772164,306.256395 194.683756,315 180.000514,315 C165.316543,315 152.228107,306.256676 146.32933,293.000912 L136,293 L135.999586,225.901442 C104.483014,209.684018 84,177.107258 84,140.764029 C84,87.8756049 126.978928,45 180,45 Z M204.368157,293.001289 L155.631537,293.000788 C160.774289,301.365854 169.901295,306.687396 180.000514,306.687396 C190.098739,306.687396 199.225406,301.365993 204.368157,293.001289 Z M216,261 L144,261 L144,285 L216,285 L216,261 Z M216,229 L144,229 L144,253 L216,253 L216,229 Z M180,52.9704007 C131.399535,52.9704007 92,92.2752181 92,140.764029 C92,175.807312 112.768019,207.027969 144.227054,221.00171 L176,221 L176,145 L163,145 L163,137 L197.434,137 L197.434,145 L184,145 L184,221 L215.771,221 L216.016297,220.892683 C247.360857,206.851379 268,175.697219 268,140.764029 C268,92.2755698 228.599816,52.9704007 180,52.9704007 Z" id="Shape" fill="#202040" fill-rule="nonzero"></path>
    </g>
</svg>