<svg xmlns="http://www.w3.org/2000/svg" width="40" height="40" viewBox="0 0 40 40">
    <g fill="none" fill-rule="evenodd">
        <path d="M0 0H40V40H0z"/>
        <path fill="#FFF" fill-rule="nonzero" d="M32.45 6H7.55c-.412-.003-.808.16-1.099.451-.291.291-.454.687-.451 1.099v24.91c0 .41.164.803.455 1.092.29.29.685.45 1.095.448H21V23.16h-3.69v-4.23H21v-3.11c0-3.62 2.21-5.59 5.43-5.59 1.09-.008 2.178.048 3.26.17v3.78h-2.27c-1.76 0-2.1.83-2.1 2.05v2.7h4.19L29 23.16h-3.68V34h7.14c.41 0 .803-.164 1.092-.455.29-.29.45-.685.448-1.095V7.55c.003-.412-.16-.808-.451-1.099-.291-.291-.687-.454-1.099-.451z"/>
    </g>
</svg>
