<svg xmlns="http://www.w3.org/2000/svg" width="40" height="40" viewBox="0 0 40 40">
    <path fill="#FFF" fill-rule="evenodd" d="M25.168 10.775c4.545 0 6.333 3.234 6.333 3.234s-3.497 1.788-3.497 6.127c0 4.894 4.356 6.58 4.356 6.58s-3.045 8.571-7.158 8.571c-1.89 0-3.358-1.273-5.348-1.273-2.029 0-4.042 1.32-5.353 1.32C10.745 35.335 6 27.205 6 20.67c0-6.43 4.016-9.803 7.784-9.803 2.449 0 4.35 1.412 5.622 1.412 1.093 0 3.122-1.503 5.762-1.503zM25.623 3s.439 2.633-1.672 5.169c-2.253 2.708-4.815 2.265-4.815 2.265s-.48-2.13 1.408-4.62C22.67 3.014 25.623 3 25.623 3z"/>
</svg>
