<svg xmlns="http://www.w3.org/2000/svg" width="40" height="40" viewBox="0 0 40 40">
    <g fill="none" fill-rule="evenodd">
        <path d="M0 0H40V40H0z"/>
        <path fill="#FFF" fill-rule="nonzero" d="M20 15c-2.761 0-5 2.239-5 5s2.239 5 5 5 5-2.239 5-5-2.239-5-5-5z"/>
        <path fill="#FFF" fill-rule="nonzero" d="M34.91 13.82c-.24-5.45-3.27-8.48-8.72-8.73C24.58 5 24.07 5 20 5s-4.58 0-6.18.09c-5.45.25-8.48 3.27-8.73 8.72C5 15.42 5 15.93 5 20s0 4.58.09 6.18c.25 5.45 3.27 8.48 8.72 8.73 1.61.09 2.12.09 6.19.09s4.58 0 6.19-.09c5.44-.25 8.47-3.27 8.72-8.73.09-1.6.09-2.11.09-6.18s0-4.58-.09-6.18zM20 27.7c-4.253 0-7.7-3.447-7.7-7.7s3.447-7.7 7.7-7.7 7.7 3.447 7.7 7.7-3.447 7.7-7.7 7.7zm8-13.91c-.994 0-1.8-.806-1.8-1.8s.806-1.8 1.8-1.8 1.8.806 1.8 1.8c.003.478-.186.938-.524 1.276-.338.338-.798.527-1.276.524z"/>
    </g>
</svg>
