<svg xmlns="http://www.w3.org/2000/svg" width="40" height="40" viewBox="0 0 40 40">
    <g fill="none" fill-rule="evenodd">
        <path fill="#FFF" d="M20.148 3.556c9.164 0 16.593 7.428 16.593 16.592 0 9.164-7.429 16.593-16.593 16.593S3.556 29.312 3.556 20.148 10.984 3.556 20.148 3.556zM16.871 13.63h-4.81v.276l1.55 1.847c.151.135.229.335.208.536v7.258c.046.262-.038.53-.224.72l-1.743 2.093v.276h4.942v-.276l-1.743-2.092c-.188-.191-.276-.457-.24-.72V17.27l4.338 9.366h.503l3.726-9.366v7.542c-.002.135-.018.18-.131.291l-1.34 1.288v.276h6.506v-.276l-1.293-1.257c-.114-.086-.171-.228-.147-.368V15.53c-.024-.14.033-.281.147-.368l1.324-1.256v-.276H23.86l-3.27 8.07-3.718-8.07z"/>
    </g>
</svg>
