<svg xmlns="http://www.w3.org/2000/svg" xmlns:xlink="http://www.w3.org/1999/xlink" width="368" height="409" viewBox="0 0 368 409">
    <defs>
        <path id="prefix__a" d="M0 0.36L46.001 0.36 46.001 44.999 0 44.999z"/>
        <path id="prefix__c" d="M0.257 0.185L40.386 0.185 40.386 43.175 0.257 43.175z"/>
    </defs>
    <g fill="none" fill-rule="evenodd">
        <path fill="#17D3D6" d="M137.224 0L26 288h316L230.776 0h-93.552zm46.777 77.366l51.487 143.833H132.512l51.489-143.833z"/>
        <g transform="translate(0 364)">
            <mask id="prefix__b" fill="#fff">
                <use xlink:href="#prefix__a"/>
            </mask>
            <path fill="#191919" d="M23 33.824c-5.961 0-10.978-4.323-10.978-11.144 0-6.822 5.017-11.144 10.979-11.144 5.962 0 10.977 4.322 10.977 11.144 0 6.821-5.015 11.144-10.977 11.144M23 .36C10.196.36-.001 9.38-.001 22.68 0 35.978 10.196 45 23.001 45c12.804 0 23-9.02 23-22.319C46 9.38 35.805.36 23 .36" mask="url(#prefix__b)"/>
            <path fill="#191919" d="M78.851 16.139c0 2.796-2.055 4.286-5.236 4.286h-10.02V11.82h10.02c3.181 0 5.236 1.504 5.236 4.319M51.794 1.627v42.106c0 .243.197.442.44.442h10.922c.242 0 .438-.2.438-.442V30.806H73.9c10.568 0 16.878-5.285 16.878-14.667 0-9.562-6.369-14.954-17.036-14.954H52.234c-.243 0-.44.198-.44.442M108.216 27.696h21c.24 0 .436-.196.436-.442V17.85c0-.244-.195-.44-.437-.44h-20.999v-5.684h22.889c.243 0 .438-.197.438-.442V1.627c0-.244-.195-.442-.438-.442h-34.25c-.241 0-.438.198-.438.442v42.106c0 .243.197.441.438.441h34.5c.243 0 .439-.198.439-.44v-9.658c0-.244-.196-.44-.44-.44h-23.138v-5.94zM225.543 20.425h-10.021V11.82h10.021c3.18 0 5.238 1.504 5.238 4.319 0 2.796-2.057 4.286-5.238 4.286m.128-19.24h-21.51c-.243 0-.438.198-.438.442v42.106c0 .243.195.442.438.442h10.922c.243 0 .439-.2.439-.442V30.806h10.306c10.568 0 16.878-5.285 16.878-14.667 0-9.562-6.37-14.954-17.035-14.954M296.671 44.175h10.924c.241 0 .438-.198.438-.443V12.106h13.233c.241 0 .438-.198.438-.44V1.625c0-.243-.197-.442-.438-.442H283c-.243 0-.438.2-.438.442v10.04c0 .242.195.44.438.44h13.233v31.626c0 .245.196.443.438.443"/>
            <g transform="translate(326.833 1)">
                <mask id="prefix__d" fill="#fff">
                    <use xlink:href="#prefix__c"/>
                </mask>
                <path fill="#191919" d="M11.619.185H.695C.453.185.257.383.257.627v42.106c0 .243.196.442.438.442h10.924c.241 0 .438-.2.438-.442V26.887h16.528v15.846c0 .243.197.442.438.442h10.924c.242 0 .44-.2.44-.442V.627c0-.244-.198-.442-.44-.442H29.023c-.241 0-.438.198-.438.442v15.37H12.057V.628c0-.244-.197-.442-.438-.442" mask="url(#prefix__d)"/>
            </g>
            <path fill="#191919" d="M255.726 33.76l7.706-21.018 7.706 21.019h-15.412zM270.005.934h-13.144c-.26 0-.492.16-.584.402l-16.264 42.238c-.111.29.101.602.409.602h46.02c.307 0 .52-.312.408-.602L270.589 1.335c-.093-.242-.326-.402-.584-.402zM168.853 1.627V26.35L151.136 1.448c-.118-.166-.307-.264-.51-.264h-10.331c-.242 0-.438.2-.438.443v42.106c0 .243.196.442.438.442h10.922c.243 0 .439-.2.439-.442V20.259l17.279 23.659c.118.162.305.257.505.257h10.775c.242 0 .437-.2.437-.442V1.627c0-.243-.195-.443-.437-.443h-10.922c-.243 0-.44.2-.44.443"/>
        </g>
    </g>
</svg>
