<?xml version="1.0" encoding="utf-8"?>
<!DOCTYPE svg PUBLIC "-//W3C//DTD SVG 1.1//EN" "http://www.w3.org/Graphics/SVG/1.1/DTD/svg11.dtd">
<svg version="1.1" xmlns="http://www.w3.org/2000/svg" xmlns:xlink="http://www.w3.org/1999/xlink" x="0px" y="0px"
	 width="192px" height="38px" viewBox="0 0 192 38" enable-background="new 0 0 192 38" xml:space="preserve">
<path fill="#FFFFFF" d="M18.833,36.754V19.756c0-2.312-0.565-4.164-1.698-5.561c-1.134-1.395-2.658-2.096-4.577-2.096
	c-1.255,0-2.379,0.235-3.373,0.701c-0.994,0.466-1.841,1.114-2.536,1.949c-0.699,0.834-1.231,1.852-1.598,3.059
	c-0.366,1.2-0.548,2.527-0.548,3.971v14.975H1.208V10.127h2.98v4.622c0.838-1.829,1.998-3.151,3.478-3.973
	C9.15,9.96,10.955,9.55,13.082,9.55c2.964,0,5.213,0.898,6.746,2.698c1.536,1.794,2.303,4.347,2.303,7.653v16.853H18.833z"/>
<path fill="#FFFFFF" d="M45.811,36.752l-2.999,0.002v-3.899c-1.186,1.73-2.544,2.918-4.079,3.562
	c-1.535,0.641-3.086,0.962-4.655,0.962c-2.721,0-4.839-0.738-6.357-2.215c-1.515-1.477-2.274-3.368-2.274-5.683
	c0-2.824,1.203-4.998,3.61-6.523c2.405-1.521,5.909-2.285,10.512-2.285h0.367c0.035,0.545,0.052,0.997,0.052,1.348v0.867
	c0,0.259-0.017,0.384-0.052,0.384c-3.662,0.063-6.39,0.635-8.186,1.711c-1.798,1.077-2.693,2.576-2.693,4.499
	c0,1.639,0.442,2.922,1.334,3.853c0.888,0.934,2.327,1.397,4.315,1.397c2.581,0,4.524-0.795,5.83-2.382
	c1.308-1.589,1.962-3.67,1.962-6.238v-2.309V20.72v-2.36c0-2.15-0.533-3.724-1.595-4.716c-1.064-0.996-2.589-1.495-4.576-1.495
	c-1.327,0-2.685,0.185-4.079,0.553c-1.395,0.372-2.616,0.878-3.661,1.518l-1.048-2.023c0.21-0.129,0.62-0.344,1.23-0.65
	c0.61-0.302,1.324-0.599,2.143-0.889c0.821-0.29,1.717-0.547,2.694-0.772c0.976-0.225,1.936-0.335,2.879-0.335
	c3.067,0,5.388,0.737,6.954,2.215c1.57,1.476,2.354,3.66,2.354,6.546v14.445L45.811,36.752z"/>
<path fill="#FFFFFF" d="M190.791,36.752l-2.998,0.002v-3.899c-1.187,1.73-2.546,2.918-4.079,3.562c-1.535,0.641-3.087,0.962-4.656,0.962
	c-2.719,0-4.837-0.738-6.357-2.215c-1.515-1.477-2.272-3.368-2.272-5.683c0-2.824,1.204-4.998,3.609-6.523
	c2.405-1.521,5.908-2.285,10.514-2.285h0.365c0.033,0.545,0.053,0.997,0.053,1.348v0.867c0,0.259-0.02,0.384-0.053,0.384
	c-3.66,0.063-6.39,0.635-8.186,1.711c-1.797,1.077-2.693,2.576-2.693,4.499c0,1.639,0.442,2.922,1.335,3.853
	c0.887,0.934,2.325,1.397,4.313,1.397c2.582,0,4.524-0.795,5.831-2.382c1.307-1.589,1.962-3.67,1.962-6.238v-2.309V20.72v-2.36
	c0-2.15-0.534-3.724-1.596-4.716c-1.063-0.996-2.589-1.495-4.574-1.495c-1.329,0-2.686,0.185-4.081,0.553
	c-1.394,0.372-2.615,0.878-3.662,1.518l-1.046-2.023c0.209-0.129,0.62-0.344,1.23-0.65c0.608-0.302,1.321-0.599,2.143-0.889
	c0.82-0.29,1.716-0.547,2.694-0.772c0.975-0.225,1.935-0.335,2.879-0.335c3.065,0,5.387,0.737,6.953,2.215
	c1.568,1.476,2.354,3.66,2.354,6.546v14.445L190.791,36.752z"/>
<path fill="#FFFFFF" d="M65.22,32.827c-0.453,0.947-1.098,1.763-1.937,2.435c-0.836,0.675-1.838,1.195-3.005,1.564
	c-1.169,0.37-2.485,0.551-3.949,0.551c-1.396,0-2.773-0.136-4.133-0.404c-1.361-0.272-2.372-0.587-3.034-0.943l0.368-2.986
	c0.139,0.129,0.435,0.289,0.887,0.482c0.452,0.197,0.994,0.378,1.621,0.555c0.63,0.179,1.316,0.328,2.067,0.458
	c0.749,0.13,1.491,0.192,2.224,0.192c0.836,0,1.611-0.12,2.328-0.359c0.715-0.238,1.35-0.569,1.909-0.986
	c0.557-0.42,0.992-0.916,1.305-1.493c0.315-0.58,0.472-1.205,0.472-1.88c0-0.771-0.149-1.452-0.444-2.044
	c-0.296-0.599-0.706-1.119-1.231-1.566c-0.521-0.453-1.131-0.858-1.83-1.23c-0.696-0.365-1.429-0.729-2.197-1.082
	c-0.768-0.354-1.567-0.738-2.406-1.154c-0.836-0.418-1.604-0.915-2.3-1.493c-0.699-0.577-1.275-1.259-1.727-2.047
	c-0.452-0.786-0.678-1.708-0.678-2.768c0-1.123,0.217-2.125,0.653-3.009c0.435-0.885,1.029-1.622,1.776-2.215
	c0.751-0.594,1.658-1.051,2.722-1.369c1.062-0.325,2.223-0.483,3.478-0.483c0.558,0,1.168,0.037,1.831,0.119
	c0.661,0.082,1.306,0.184,1.935,0.313c0.628,0.128,1.194,0.265,1.7,0.409c0.505,0.144,0.898,0.281,1.177,0.408l-0.367,2.552
	c-0.768-0.318-1.717-0.598-2.849-0.838c-1.134-0.243-2.206-0.365-3.218-0.365c-1.882,0-3.279,0.401-4.184,1.203
	c-0.906,0.806-1.361,1.881-1.361,3.228c0,1.061,0.565,1.998,1.7,2.815c1.134,0.817,2.539,1.581,4.212,2.287
	c2.232,0.93,3.983,2.017,5.257,3.254c1.272,1.231,1.909,2.812,1.909,4.74C65.901,30.83,65.673,31.882,65.22,32.827"/>
<path fill="#FFFFFF" d="M101.805,36.754V19.756c0-2.343-0.487-4.204-1.465-5.587c-0.977-1.376-2.354-2.07-4.132-2.07
	c-2.337,0-4.15,0.884-5.439,2.65c-1.292,1.765-1.937,4.109-1.937,7.03v14.975h-3.293V19.756c0-2.343-0.497-4.204-1.491-5.587
	c-0.994-1.376-2.38-2.07-4.158-2.07c-2.337,0-4.15,0.884-5.44,2.65c-1.291,1.765-1.936,4.109-1.936,7.03v14.975h-3.296V10.127h2.981
	v4.622c0.802-1.829,1.909-3.151,3.321-3.973c1.415-0.816,3.166-1.226,5.258-1.226c1.779,0,3.332,0.449,4.654,1.348
	c1.327,0.899,2.146,2.262,2.46,4.091c0.662-1.668,1.708-2.993,3.138-3.971c1.429-0.978,3.259-1.468,5.492-1.468
	c2.825,0,4.96,0.898,6.407,2.698c1.446,1.794,2.17,4.347,2.17,7.653v16.853H101.805z"/>
<path fill="#FFFFFF" d="M114.223,24.187l0.051-2.505h12.554c-0.07-2.986-0.681-5.32-1.83-7.005c-1.15-1.684-2.771-2.528-4.866-2.528
	c-2.51,0-4.53,1.042-6.066,3.13c-1.187,1.67-1.899,3.803-2.144,6.403v2.601c0.173,3.179,0.957,5.65,2.353,7.413
	c1.604,2.026,3.87,3.035,6.801,3.035c0.733,0,1.5-0.113,2.301-0.338c0.803-0.224,1.543-0.488,2.223-0.794
	c0.682-0.304,1.271-0.625,1.778-0.962c0.507-0.34,0.848-0.616,1.021-0.842l1.622,2.069c-0.351,0.321-0.893,0.684-1.622,1.085
	c-0.733,0.402-1.552,0.774-2.458,1.129c-0.907,0.352-1.839,0.649-2.799,0.895c-0.96,0.238-1.823,0.358-2.589,0.358
	c-4.011,0-7.035-1.196-9.074-3.588c-2.041-2.392-3.063-5.834-3.063-10.326c0-1.991,0.279-3.827,0.837-5.512
	c0.56-1.689,1.325-3.149,2.303-4.383c0.977-1.236,2.144-2.205,3.504-2.916c1.359-0.702,2.842-1.055,4.444-1.055
	c3.66,0,6.443,1.186,8.344,3.561c1.9,2.376,2.765,5.699,2.591,9.967l-0.053,1.203L114.223,24.187z"/>
<path fill="#FFFFFF" d="M149.549,36.347c-1.464,0.643-2.983,0.962-4.55,0.962c-1.777,0-3.364-0.319-4.759-0.962
	c-1.396-0.639-2.572-1.565-3.53-2.767c-0.96-1.204-1.694-2.667-2.197-4.383c-0.507-1.719-0.759-3.653-0.759-5.804
	c0-2.149,0.234-4.086,0.707-5.801c0.47-1.717,1.166-3.172,2.091-4.358c0.924-1.188,2.056-2.104,3.4-2.745
	c1.34-0.643,2.902-0.965,4.682-0.965c0.766,0,1.542,0.067,2.327,0.193c0.785,0.129,1.542,0.378,2.275,0.748
	c0.73,0.369,1.437,0.876,2.118,1.518c0.679,0.643,1.333,1.46,1.96,2.455V0.623h3.295V36.73h-3.295v-4.044
	C152.27,34.483,151.015,35.708,149.549,36.347 M152.661,18.773c-0.401-1.382-0.967-2.569-1.7-3.565
	c-0.731-0.995-1.605-1.754-2.615-2.288c-1.011-0.526-2.125-0.792-3.347-0.792c-2.511,0-4.409,1.002-5.702,3.007
	c-1.288,2.007-1.933,4.76-1.933,8.259c0,3.5,0.668,6.261,2.012,8.281c1.343,2.021,3.321,3.035,5.936,3.035
	c1.187,0,2.276-0.282,3.271-0.843c0.994-0.563,1.83-1.342,2.509-2.336c0.682-0.993,1.214-2.19,1.597-3.587
	c0.385-1.397,0.576-2.91,0.576-4.551C153.264,21.693,153.061,20.152,152.661,18.773"/>
<polygon fill="#FFFFFF" points="163.454,36.665 163.454,12.365 159.927,12.365 159.927,9.623 167.144,9.623 167.144,36.665 "/>
<path fill="#FFFFFF" d="M167.113,3.098c0,1.357-1.104,2.457-2.461,2.457c-1.355,0-2.458-1.1-2.458-2.457
	c0-1.359,1.103-2.458,2.458-2.458C166.009,0.64,167.113,1.739,167.113,3.098"/>
</svg>