<svg width="13" height="12" viewBox="0 0 13 12" fill="none" xmlns="http://www.w3.org/2000/svg">
<g id="ico_heart">
<mask id="mask0_5851_1959" style="mask-type:luminance" maskUnits="userSpaceOnUse" x="0" y="0" width="13" height="12">
<path id="Clip 2" fill-rule="evenodd" clip-rule="evenodd" d="M0 0.430664H12.9397V11.5692H0V0.430664Z" fill="white"/>
</mask>
<g mask="url(#mask0_5851_1959)">
<path id="Fill 1" fill-rule="evenodd" clip-rule="evenodd" d="M11.9662 1.32165C10.8876 0.32077 9.0495 0.181552 7.71428 1.02419C7.28729 1.29376 6.89847 1.62396 6.48046 1.93513C5.9412 1.56286 5.45713 1.15632 4.9116 0.864761C2.70018 -0.317175 0.231481 1.02986 0.0146174 3.50943C-0.11101 4.9457 0.588154 6.03817 1.53361 6.98682C2.95486 8.4128 4.4228 9.79245 5.87419 11.1885C6.39951 11.6939 6.51627 11.6952 7.03391 11.1983C8.41616 9.87163 9.81709 8.56301 11.1624 7.19954C11.6905 6.6643 12.1745 6.04798 12.5309 5.38876C13.264 4.03274 12.9723 2.25517 11.9662 1.32165Z" fill="#717680"/>
</g>
</g>
</svg>
