<svg width="138" height="30" viewBox="0 0 138 30" fill="none" xmlns="http://www.w3.org/2000/svg">
<g id="logo">
<g id="Group">
<path id="Vector" d="M97.1115 12.8061C94.6374 14.0066 92.9984 15.7563 91.6948 18.1795C88.67 23.8064 90.8575 29.8778 96.9982 29.8778C103.139 29.8778 106.515 25.8494 107.618 24.7023C108.078 24.2021 108.52 23.6819 108.944 23.1505C109.117 22.9326 109.453 23.155 109.322 23.4017C109.18 23.6707 109.029 23.9375 108.871 24.1976C107.909 25.7716 108.222 27.8392 109.69 28.9552C110.357 29.4621 111.269 29.8 112.518 29.8C116.433 29.8 119.658 26.7409 121.012 25.2292C121.175 25.0447 121.332 24.8601 121.49 24.6712C121.628 24.5022 122.138 23.8664 122.347 23.5863C122.514 23.3639 122.856 23.5774 122.731 23.8264C122.645 24.002 122.554 24.1776 122.46 24.3488C121.914 25.3492 121.885 26.5586 122.374 27.5902C122.969 28.8485 124.066 29.88 126.047 29.88C127.582 29.88 130.058 29.1108 132.363 26.9788C137.058 22.6325 137.46 18.9954 137.145 18.0506C136.343 15.6473 133.396 17.0546 130.587 19.1266C130.4 19.2644 130.151 19.0666 130.245 18.8531C131.055 17.0057 132.741 12.5171 131.148 10.1695C129.27 7.40384 125.439 9.09567 121.648 11.9613C121.472 12.0947 121.23 11.9213 121.299 11.7123C121.896 9.88045 123.204 4.99615 121.037 2.82634C116.084 -2.13132 105.573 11.2655 102.577 15.3339C102.433 15.5317 102.122 15.3895 102.175 15.1493C102.359 14.3134 102.335 13.7021 102.231 13.3864C101.658 11.6745 99.0725 11.8568 97.1159 12.8084L97.1115 12.8061Z" fill="#15181E"/>
<path id="Vector_2" d="M105.107 8.68846C107.045 6.67947 107.448 3.92018 106.005 2.52542C104.563 1.13065 101.822 1.62857 99.8835 3.63755C97.9448 5.64654 97.5423 8.40583 98.9847 9.8006C100.427 11.1954 103.168 10.6974 105.107 8.68846Z" fill="#15181E"/>
</g>
<g id="Group_2">
<path id="Vector_3" d="M44.9619 11.6188L47.8246 20.3358L50.2764 11.6188H54.6737L50.1276 26.3028H45.6703L42.4834 16.8188L39.3542 26.3028H34.8081L30.2042 11.6188H34.868L37.3176 20.3047L40.2092 11.6188H44.9619Z" fill="#15181E"/>
<path id="Vector_4" d="M68.7757 22.0788C68.0672 24.6199 65.7353 26.7474 62.0154 26.7474C57.9712 26.7474 54.3712 23.8507 54.3712 18.9175C54.3712 13.9842 57.8846 11.1764 61.6911 11.1764C66.2372 11.1764 69.04 13.9842 69.04 18.7107C69.04 19.331 68.98 20.0113 68.9511 20.1002H58.7374C58.8262 21.7542 60.3319 22.9369 62.0731 22.9369C63.6966 22.9369 64.6116 22.1677 65.0246 21.0161L68.7735 22.0788H68.7757ZM64.7026 17.2034C64.6426 16.0807 63.8765 14.7223 61.7511 14.7223C59.8611 14.7223 58.9173 16.1118 58.8284 17.2034H64.7026Z" fill="#15181E"/>
<path id="Vector_5" d="M70.6368 26.3028V4.9115H75.0341V13.0083C75.6537 12.0923 77.2772 11.2653 79.2848 11.2653C83.5356 11.2653 86.1029 14.5156 86.1029 18.9174C86.1029 23.3193 83.2091 26.6296 79.1072 26.6296C77.1595 26.6296 75.6537 25.7737 74.9741 24.6488V26.3028H70.6346H70.6368ZM78.3121 15.3115C76.5709 15.3115 74.9764 16.4631 74.9764 18.9463C74.9764 21.4296 76.5709 22.6101 78.3121 22.6101C80.0533 22.6101 81.619 21.3985 81.619 18.9463C81.619 16.4942 80.0555 15.3115 78.3121 15.3115Z" fill="#15181E"/>
<path id="Vector_6" d="M6.95801 26.1539V11.4677H11.2376V13.1528C11.9749 11.8523 13.8649 11.0253 15.4595 11.0253C17.556 11.0253 19.0617 11.8812 19.799 13.3307C20.9494 11.6767 22.3664 11.0253 24.3451 11.0253C27.119 11.0253 29.7774 12.6504 29.7774 16.6388V26.1539H25.4378V17.6436C25.4378 16.2542 24.7005 15.1626 23.1059 15.1626C21.5113 15.1626 20.6563 16.3742 20.6563 17.6748V26.1561H16.2279V17.6459C16.2279 16.2564 15.4906 15.1648 13.8671 15.1648C12.2437 15.1648 11.4464 16.3764 11.4464 17.7059V26.1561H6.96023L6.95801 26.1539Z" fill="#15181E"/>
<g id="Group_3">
<path id="Vector_7" d="M4.7171 11.4675H0.230957V26.1538H4.7171V11.4675Z" fill="#15181E"/>
<path id="Vector_8" d="M5.16128 7.45478C5.16128 8.88205 4.00644 10.0381 2.58064 10.0381C1.15485 10.0381 0 8.88205 0 7.45478C0 6.02751 1.15485 4.87146 2.58064 4.87146C4.00644 4.87146 5.16128 6.02751 5.16128 7.45478Z" fill="#15181E"/>
</g>
</g>
</g>
</svg>
