<svg width="16" height="16" viewBox="0 0 16 16" fill="none" xmlns="http://www.w3.org/2000/svg">
<g id="ico_instagram">
<g id="Group 3">
<mask id="mask0_9700_38294" style="mask-type:luminance" maskUnits="userSpaceOnUse" x="0" y="0" width="16" height="16">
<path id="Clip 2" fill-rule="evenodd" clip-rule="evenodd" d="M0.5 0.5H15.5V15.5001H0.5V0.5Z" fill="white"/>
</mask>
<g mask="url(#mask0_9700_38294)">
<path id="Fill 1" fill-rule="evenodd" clip-rule="evenodd" d="M14.1189 11.2821C14.1189 12.8693 12.832 14.156 11.2448 14.156H4.75538C3.16816 14.156 1.8812 12.8693 1.8812 11.2821V4.79274C1.8812 3.20552 3.16816 1.91856 4.75538 1.91856H11.2448C12.832 1.91856 14.1189 3.20552 14.1189 4.79274V11.2821ZM11.1703 0.5H4.82951C2.43834 0.5 0.5 2.43834 0.5 4.82951V11.1706C0.5 13.5618 2.43834 15.5001 4.82951 15.5001H11.1703C13.5621 15.5001 15.5001 13.5618 15.5001 11.1706V4.82951C15.5001 2.43834 13.5621 0.5 11.1703 0.5Z" fill="#4B515B"/>
</g>
</g>
<path id="Fill 4" fill-rule="evenodd" clip-rule="evenodd" d="M7.99993 10.5602C6.60609 10.5602 5.47687 9.43074 5.47687 8.03718C5.47687 6.64391 6.60609 5.51412 7.99993 5.51412C9.3932 5.51412 10.5227 6.64391 10.5227 8.03718C10.5227 9.43074 9.3932 10.5602 7.99993 10.5602ZM7.9999 4.14502C5.85038 4.14502 4.10742 5.88769 4.10742 8.03721C4.10742 10.1867 5.85038 11.9294 7.9999 11.9294C10.1491 11.9294 11.8921 10.1867 11.8921 8.03721C11.8921 5.88769 10.1491 4.14502 7.9999 4.14502Z" fill="#4B515B"/>
<path id="Fill 6" fill-rule="evenodd" clip-rule="evenodd" d="M12.0221 3.09082C11.5212 3.09082 11.1152 3.49682 11.1152 3.99735C11.1152 4.49817 11.5212 4.90417 12.0221 4.90417C12.5226 4.90417 12.9283 4.49817 12.9283 3.99735C12.9283 3.49682 12.5226 3.09082 12.0221 3.09082Z" fill="#4B515B"/>
</g>
</svg>
