<svg width="115" height="26" viewBox="0 0 115 26" fill="none" xmlns="http://www.w3.org/2000/svg">
<g id="logo">
<g id="Group">
<path id="Vector" d="M80.8601 11.1631C78.8001 12.1627 77.4353 13.6196 76.3498 15.6373C73.8312 20.3226 75.6527 25.3781 80.7658 25.3781C85.879 25.3781 88.6898 22.0238 89.6089 21.0686C89.9917 20.6521 90.3597 20.2189 90.7129 19.7765C90.8571 19.5951 91.1364 19.7802 91.0273 19.9857C90.9089 20.2097 90.7832 20.4318 90.6519 20.6484C89.8512 21.959 90.1119 23.6806 91.3342 24.6099C91.889 25.0319 92.6491 25.3133 93.6883 25.3133C96.9485 25.3133 99.6336 22.7661 100.762 21.5073C100.897 21.3537 101.028 21.2 101.159 21.0427C101.274 20.902 101.699 20.3726 101.873 20.1393C102.012 19.9542 102.297 20.1319 102.193 20.3393C102.121 20.4855 102.045 20.6317 101.967 20.7743C101.512 21.6073 101.488 22.6143 101.895 23.4732C102.391 24.521 103.304 25.3799 104.954 25.3799C106.232 25.3799 108.294 24.7394 110.213 22.9642C114.122 19.3452 114.457 16.3167 114.195 15.53C113.527 13.5289 111.073 14.7006 108.734 16.4259C108.578 16.5407 108.371 16.3759 108.449 16.1982C109.124 14.6599 110.528 10.9224 109.202 8.96763C107.637 6.6648 104.447 8.07352 101.291 10.4597C101.144 10.5707 100.943 10.4263 101 10.2523C101.498 8.72698 102.587 4.66 100.782 2.85328C96.6582 -1.27479 87.9058 9.88025 85.4111 13.2679C85.2909 13.4326 85.032 13.3141 85.0764 13.1142C85.2299 12.4182 85.2096 11.9091 85.1226 11.6462C84.6455 10.2209 82.493 10.3727 80.8638 11.1649L80.8601 11.1631Z" fill="white"/>
<path id="Vector_2" d="M87.5182 7.73541C89.1325 6.0626 89.4676 3.76504 88.2666 2.60366C87.0656 1.44229 84.7834 1.85689 83.1691 3.5297C81.5548 5.20251 81.2197 7.50007 82.4207 8.66145C83.6216 9.82282 85.9039 9.40822 87.5182 7.73541Z" fill="white"/>
</g>
<g id="Group_2">
<path id="Vector_3" d="M37.4367 10.1719L39.8203 17.4302L41.8619 10.1719H45.5234L41.738 22.3987H38.0266L35.3729 14.5017L32.7673 22.3987H28.9819L25.1484 10.1719H29.0318L31.0716 17.4043L33.4793 10.1719H37.4367Z" fill="white"/>
<path id="Vector_4" d="M57.2676 18.8827C56.6777 20.9986 54.736 22.7702 51.6385 22.7702C48.2711 22.7702 45.2734 20.3581 45.2734 16.2504C45.2734 12.1427 48.1989 9.80469 51.3685 9.80469C55.1539 9.80469 57.4877 12.1427 57.4877 16.0782C57.4877 16.5947 57.4377 17.1612 57.4137 17.2352H48.909C48.983 18.6125 50.2368 19.5973 51.6866 19.5973C53.0384 19.5973 53.8003 18.9568 54.1442 17.9979L57.2658 18.8827H57.2676ZM53.8761 14.8232C53.8262 13.8883 53.1882 12.7573 51.4185 12.7573C49.8448 12.7573 49.0588 13.9142 48.9849 14.8232H53.8761Z" fill="white"/>
<path id="Vector_5" d="M58.8183 22.4016V4.58984H62.4798V11.3317C62.9957 10.5691 64.3475 9.88043 66.0192 9.88043C69.5586 9.88043 71.6964 12.5868 71.6964 16.2521C71.6964 19.9174 69.2868 22.6737 65.8713 22.6737C64.2495 22.6737 62.9957 21.961 62.4298 21.0244V22.4016H58.8164H58.8183ZM65.2092 13.2495C63.7594 13.2495 62.4317 14.2084 62.4317 16.2762C62.4317 18.3439 63.7594 19.3269 65.2092 19.3269C66.659 19.3269 67.9628 18.318 67.9628 16.2762C67.9628 14.2343 66.6609 13.2495 65.2092 13.2495Z" fill="white"/>
<path id="Vector_6" d="M5.79297 22.2768V10.0481H9.35646V11.4512C9.9704 10.3683 11.5441 9.67969 12.8719 9.67969C14.6175 9.67969 15.8713 10.3924 16.4853 11.5993C17.4432 10.2221 18.623 9.67969 20.2707 9.67969C22.5804 9.67969 24.7939 11.0329 24.7939 14.3538V22.2768H21.1805V15.1906C21.1805 14.0336 20.5666 13.1247 19.2388 13.1247C17.911 13.1247 17.1991 14.1336 17.1991 15.2165V22.2786H13.5117V15.1924C13.5117 14.0354 12.8978 13.1265 11.546 13.1265C10.1942 13.1265 9.53028 14.1354 9.53028 15.2424V22.2786H5.79482L5.79297 22.2768Z" fill="white"/>
<g id="Group_3">
<path id="Vector_7" d="M3.92687 10.0469H0.191406V22.2756H3.92687V10.0469Z" fill="white"/>
<path id="Vector_8" d="M4.29764 6.70573C4.29764 7.89416 3.33603 8.85676 2.14882 8.85676C0.961605 8.85676 0 7.89416 0 6.70573C0 5.51729 0.961605 4.55469 2.14882 4.55469C3.33603 4.55469 4.29764 5.51729 4.29764 6.70573Z" fill="white"/>
</g>
</g>
</g>
</svg>
