<svg width="16" height="16" viewBox="0 0 16 16" fill="none" xmlns="http://www.w3.org/2000/svg">
<g id="youtube">
<g id="Exclude">
<path fill-rule="evenodd" clip-rule="evenodd" d="M14.0542 4.46659C13.9822 4.17898 13.8356 3.91545 13.6292 3.70263C13.4227 3.48982 13.1638 3.33525 12.8785 3.25453C11.8361 3 7.66667 3 7.66667 3C7.66667 3 3.49719 3 2.45482 3.27877C2.16953 3.35949 1.91059 3.51406 1.70416 3.72688C1.49772 3.93969 1.35111 4.20322 1.27912 4.49083C1.08835 5.54869 0.995035 6.62182 1.00035 7.69673C0.993546 8.77973 1.08687 9.86104 1.27912 10.9269C1.35848 11.2055 1.50838 11.459 1.71434 11.6629C1.92029 11.8667 2.17533 12.014 2.45482 12.0904C3.49719 12.3692 7.66667 12.3692 7.66667 12.3692C7.66667 12.3692 11.8361 12.3692 12.8785 12.0904C13.1638 12.0097 13.4227 11.8552 13.6292 11.6423C13.8356 11.4295 13.9822 11.166 14.0542 10.8784C14.2435 9.82849 14.3368 8.76354 14.333 7.69673C14.3398 6.61372 14.2465 5.53241 14.0542 4.46659ZM6 5.87812V5.87814V10.1219V10.1219C6 10.5214 6 10.7212 6.08602 10.8327C6.16098 10.9299 6.27573 10.9907 6.40049 10.9994C6.54366 11.0093 6.71678 10.9013 7.06303 10.6852L10.4634 8.56334C10.7639 8.37586 10.9141 8.28211 10.966 8.16291C11.0113 8.05876 11.0113 7.94124 10.966 7.83709C10.9141 7.71789 10.7639 7.62414 10.4634 7.43666L7.06303 5.31479C6.71679 5.09873 6.54366 4.9907 6.40049 5.00063C6.27573 5.00928 6.16098 5.07009 6.08602 5.16728C6 5.27881 6 5.47858 6 5.87812Z" fill="#4B515B"/>
<path d="M14.0542 4.46659L14.6447 4.36008C14.6423 4.34693 14.6395 4.33387 14.6363 4.32091L14.0542 4.46659ZM12.8785 3.25453L13.0419 2.67719C13.0349 2.67522 13.0279 2.67338 13.0208 2.67166L12.8785 3.25453ZM2.45482 3.27877L2.29978 2.69908L2.29148 2.70143L2.45482 3.27877ZM1.27912 4.49083L0.697075 4.34515C0.693829 4.35812 0.691017 4.37119 0.688644 4.38435L1.27912 4.49083ZM1.00035 7.69673L1.60037 7.70049L1.60034 7.69376L1.00035 7.69673ZM1.27912 10.9269L0.688649 11.0334C0.692164 11.0529 0.696641 11.0722 0.702065 11.0912L1.27912 10.9269ZM2.45482 12.0904L2.29646 12.6692L2.2998 12.6701L2.45482 12.0904ZM7.66667 12.3692V11.7692V12.3692ZM12.8785 12.0904L13.0336 12.6701L13.0419 12.6678L12.8785 12.0904ZM14.0542 10.8784L14.6363 11.0241C14.6395 11.0111 14.6423 10.998 14.6447 10.9848L14.0542 10.8784ZM14.333 7.69673L13.733 7.69296L13.733 7.69888L14.333 7.69673ZM6.08602 10.8327L6.56112 10.4663V10.4663L6.08602 10.8327ZM6.40049 10.9994L6.35899 11.5979H6.35899L6.40049 10.9994ZM7.06303 10.6852L6.7454 10.1762V10.1762L7.06303 10.6852ZM10.4634 8.56334L10.1458 8.05432L10.4634 8.56334ZM10.966 8.16291L11.5161 8.40239L11.5161 8.40239L10.966 8.16291ZM10.966 7.83709L11.5161 7.59761L11.5161 7.59761L10.966 7.83709ZM10.4634 7.43666L10.1458 7.94568L10.4634 7.43666ZM7.06303 5.31479L6.7454 5.82382V5.82382L7.06303 5.31479ZM6.40049 5.00063L6.35899 4.40206L6.35899 4.40206L6.40049 5.00063ZM6.08602 5.16728L6.56112 5.53372V5.53371L6.08602 5.16728ZM13.1985 4.12039C13.3314 4.25742 13.4258 4.42709 13.4722 4.61227L14.6363 4.32091C14.5386 3.93086 14.3398 3.57349 14.0599 3.28488L13.1985 4.12039ZM12.7152 3.83187C12.8989 3.88384 13.0656 3.98336 13.1985 4.12039L14.0599 3.28488C13.7799 2.99627 13.4287 2.78665 13.0419 2.67719L12.7152 3.83187ZM7.66667 3C7.66667 3.6 7.66666 3.6 7.66668 3.6C7.6667 3.6 7.66673 3.6 7.66679 3.6C7.66689 3.6 7.66705 3.6 7.66728 3.6C7.66774 3.6 7.66845 3.6 7.6694 3.6C7.67131 3.6 7.67421 3.6 7.67807 3.60001C7.68579 3.60002 7.69735 3.60003 7.71254 3.60006C7.7429 3.60012 7.78775 3.60025 7.84529 3.60049C7.96039 3.60098 8.12622 3.60197 8.32857 3.60395C8.7335 3.6079 9.2836 3.61581 9.86543 3.6316C10.4481 3.64741 11.0583 3.67101 11.5845 3.70605C12.1264 3.74214 12.533 3.7878 12.7362 3.83741L13.0208 2.67166C12.7028 2.594 12.1974 2.54421 11.6643 2.50871C11.1156 2.47217 10.4879 2.44804 9.89798 2.43204C9.30714 2.41601 8.74972 2.408 8.3403 2.40401C8.13547 2.40201 7.96742 2.401 7.85043 2.4005C7.79193 2.40025 7.74618 2.40013 7.71496 2.40006C7.69935 2.40003 7.68737 2.40002 7.67925 2.40001C7.67519 2.4 7.67209 2.4 7.66998 2.4C7.66893 2.4 7.66812 2.4 7.66757 2.4C7.66729 2.4 7.66708 2.4 7.66693 2.4C7.66685 2.4 7.66679 2.4 7.66675 2.4C7.6667 2.4 7.66667 2.4 7.66667 3ZM2.60983 3.8584C2.80824 3.80534 3.21055 3.75555 3.75257 3.71602C4.2778 3.67771 4.88709 3.65189 5.46945 3.63458C6.05085 3.61731 6.60061 3.60865 7.00532 3.60432C7.20755 3.60216 7.37328 3.60108 7.48829 3.60054C7.54579 3.60027 7.59059 3.60013 7.62091 3.60007C7.63608 3.60003 7.64762 3.60002 7.65532 3.60001C7.65917 3.6 7.66206 3.6 7.66396 3.6C7.66491 3.6 7.66561 3.6 7.66606 3.6C7.66629 3.6 7.66645 3.6 7.66655 3.6C7.6666 3.6 7.66663 3.6 7.66666 3.6C7.66667 3.6 7.66667 3.6 7.66667 3C7.66667 2.4 7.66663 2.4 7.66658 2.4C7.66654 2.4 7.66647 2.4 7.6664 2.4C7.66624 2.4 7.66603 2.4 7.66575 2.4C7.66519 2.4 7.66438 2.4 7.66332 2.4C7.66121 2.4 7.6581 2.4 7.65403 2.40001C7.64589 2.40002 7.63389 2.40003 7.61826 2.40007C7.587 2.40014 7.54121 2.40028 7.48266 2.40055C7.36557 2.4011 7.19742 2.4022 6.99248 2.40439C6.58284 2.40877 6.02508 2.41754 5.43381 2.43511C4.8435 2.45265 4.21498 2.4791 3.66527 2.5192C3.13234 2.55807 2.62258 2.61282 2.2998 2.69914L2.60983 3.8584ZM2.13483 4.14463C2.26775 4.0076 2.43447 3.90808 2.61816 3.85611L2.29148 2.70143C1.90459 2.81089 1.55343 3.02051 1.27348 3.30912L2.13483 4.14463ZM1.86116 4.63652C1.90752 4.45133 2.00192 4.28166 2.13483 4.14463L1.27348 3.30912C0.993532 3.59773 0.794702 3.9551 0.697075 4.34515L1.86116 4.63652ZM1.60034 7.69376C1.59521 6.65555 1.68534 5.61906 1.8696 4.59732L0.688644 4.38435C0.491362 5.47832 0.394861 6.58809 0.400354 7.69969L1.60034 7.69376ZM1.86959 10.8204C1.6839 9.79092 1.59377 8.74652 1.60033 7.70049L0.400358 7.69296C0.393326 8.81293 0.489833 9.93116 0.688649 11.0334L1.86959 10.8204ZM2.1364 11.2364C2.00379 11.1052 1.90728 10.942 1.85618 10.7625L0.702065 11.0912C0.809694 11.4691 1.01298 11.8129 1.29228 12.0893L2.1364 11.2364ZM2.61317 11.5117C2.43321 11.4625 2.269 11.3677 2.1364 11.2364L1.29228 12.0893C1.57157 12.3657 1.91744 12.5655 2.29647 12.6692L2.61317 11.5117ZM7.66667 12.3692C7.66667 11.7692 7.66667 11.7692 7.66666 11.7692C7.66663 11.7692 7.6666 11.7692 7.66655 11.7692C7.66645 11.7692 7.66629 11.7692 7.66606 11.7692C7.66561 11.7692 7.66491 11.7692 7.66396 11.7692C7.66206 11.7692 7.65917 11.7692 7.65532 11.7692C7.64762 11.7692 7.63608 11.7692 7.62091 11.7691C7.59059 11.7691 7.54579 11.7689 7.48829 11.7687C7.37328 11.7681 7.20755 11.7671 7.00532 11.7649C6.60061 11.7606 6.05085 11.7519 5.46945 11.7346C4.88709 11.7173 4.2778 11.6915 3.75257 11.6532C3.21055 11.6137 2.80824 11.5639 2.60983 11.5108L2.2998 12.6701C2.62258 12.7564 3.13234 12.8111 3.66527 12.85C4.21498 12.8901 4.8435 12.9166 5.43381 12.9341C6.02508 12.9517 6.58284 12.9604 6.99248 12.9648C7.19742 12.967 7.36557 12.9681 7.48266 12.9687C7.54121 12.9689 7.587 12.9691 7.61826 12.9691C7.63389 12.9692 7.64589 12.9692 7.65403 12.9692C7.6581 12.9692 7.66121 12.9692 7.66332 12.9692C7.66438 12.9692 7.66519 12.9692 7.66575 12.9692C7.66603 12.9692 7.66624 12.9692 7.6664 12.9692C7.66647 12.9692 7.66654 12.9692 7.66658 12.9692C7.66663 12.9692 7.66667 12.9692 7.66667 12.3692ZM12.7235 11.5108C12.5251 11.5639 12.1228 11.6137 11.5808 11.6532C11.0555 11.6915 10.4462 11.7173 9.86388 11.7346C9.28248 11.7519 8.73273 11.7606 8.32802 11.7649C8.12578 11.7671 7.96005 11.7681 7.84504 11.7687C7.78755 11.7689 7.74275 11.7691 7.71242 11.7691C7.69726 11.7692 7.68571 11.7692 7.67801 11.7692C7.67416 11.7692 7.67128 11.7692 7.66937 11.7692C7.66842 11.7692 7.66772 11.7692 7.66727 11.7692C7.66704 11.7692 7.66688 11.7692 7.66678 11.7692C7.66673 11.7692 7.6667 11.7692 7.66668 11.7692C7.66666 11.7692 7.66667 11.7692 7.66667 12.3692C7.66667 12.9692 7.6667 12.9692 7.66675 12.9692C7.66679 12.9692 7.66686 12.9692 7.66694 12.9692C7.66709 12.9692 7.6673 12.9692 7.66758 12.9692C7.66814 12.9692 7.66895 12.9692 7.67001 12.9692C7.67213 12.9692 7.67523 12.9692 7.6793 12.9692C7.68745 12.9692 7.69944 12.9692 7.71507 12.9691C7.74633 12.9691 7.79213 12.9689 7.85067 12.9687C7.96776 12.9681 8.13591 12.967 8.34085 12.9648C8.75049 12.9604 9.30826 12.9517 9.89952 12.9341C10.4898 12.9166 11.1184 12.8901 11.6681 12.85C12.201 12.8111 12.7108 12.7564 13.0335 12.6701L12.7235 11.5108ZM13.1985 11.2246C13.0656 11.3616 12.8989 11.4611 12.7152 11.5131L13.0419 12.6678C13.4287 12.5583 13.7799 12.3487 14.0599 12.0601L13.1985 11.2246ZM13.4722 10.7327C13.4258 10.9179 13.3314 11.0876 13.1985 11.2246L14.0599 12.0601C14.3398 11.7715 14.5386 11.4141 14.6363 11.0241L13.4722 10.7327ZM13.733 7.69888C13.7367 8.72928 13.6466 9.75787 13.4637 10.7719L14.6447 10.9848C14.8405 9.89911 14.9369 8.7978 14.933 7.69457L13.733 7.69888ZM13.4637 4.5731C13.6494 5.60253 13.7396 6.64693 13.733 7.69296L14.933 7.70049C14.94 6.58052 14.8435 5.46229 14.6447 4.36008L13.4637 4.5731ZM6.6 5.87814V5.87812H5.4V5.87814H6.6ZM6.6 10.1219V5.87814H5.4V10.1219H6.6ZM6.6 10.1219V10.1219H5.4V10.1219H6.6ZM6.56112 10.4663C6.62463 10.5486 6.61596 10.6121 6.60809 10.5289C6.60064 10.45 6.6 10.3339 6.6 10.1219H5.4C5.4 10.3094 5.39936 10.493 5.41341 10.6417C5.42705 10.7861 5.46139 11.0053 5.61091 11.1992L6.56112 10.4663ZM6.44199 10.4008C6.4846 10.4038 6.52912 10.4248 6.56112 10.4663L5.61091 11.1992C5.79284 11.435 6.06686 11.5777 6.35899 11.5979L6.44199 10.4008ZM6.7454 10.1762C6.56236 10.2904 6.45956 10.3539 6.38504 10.3915C6.30654 10.4312 6.34761 10.3943 6.44199 10.4008L6.35899 11.5979C6.59654 11.6144 6.79575 11.5285 6.92617 11.4626C7.06057 11.3947 7.21745 11.2961 7.38067 11.1942L6.7454 10.1762ZM10.1458 8.05432L6.7454 10.1762L7.38067 11.1942L10.7811 9.07237L10.1458 8.05432ZM10.4159 7.92344C10.4521 7.8401 10.5014 7.81701 10.4458 7.85913C10.422 7.87712 10.3875 7.90101 10.3352 7.93486C10.2832 7.96855 10.2222 8.00665 10.1458 8.05432L10.7811 9.07237C10.9215 8.98474 11.0617 8.89791 11.1701 8.81591C11.2776 8.73449 11.428 8.60493 11.5161 8.40239L10.4159 7.92344ZM10.4159 8.07656C10.3947 8.02798 10.3947 7.97202 10.4159 7.92344L11.5161 8.40239C11.628 8.14551 11.628 7.85449 11.5161 7.59761L10.4159 8.07656ZM10.1458 7.94568C10.2222 7.99335 10.2832 8.03145 10.3352 8.06514C10.3875 8.09898 10.422 8.12288 10.4458 8.14087C10.5014 8.18299 10.4521 8.1599 10.4159 8.07656L11.5161 7.59761C11.428 7.39507 11.2776 7.26551 11.1701 7.18409C11.0617 7.10209 10.9215 7.01526 10.7811 6.92763L10.1458 7.94568ZM6.7454 5.82382L10.1458 7.94568L10.7811 6.92763L7.38067 4.80577L6.7454 5.82382ZM6.44199 5.59919C6.34761 5.60573 6.30654 5.56884 6.38505 5.6085C6.45956 5.64615 6.56237 5.70961 6.7454 5.82382L7.38067 4.80577C7.21745 4.70392 7.06057 4.60533 6.92617 4.53743C6.79575 4.47154 6.59654 4.38559 6.35899 4.40206L6.44199 5.59919ZM6.56112 5.53371C6.52912 5.57521 6.48459 5.59624 6.44199 5.59919L6.35899 4.40206C6.06686 4.42232 5.79284 4.56496 5.61091 4.80084L6.56112 5.53371ZM6.6 5.87812C6.6 5.6661 6.60064 5.55002 6.60809 5.47112C6.61596 5.38788 6.62463 5.45137 6.56112 5.53372L5.61091 4.80084C5.46139 4.99472 5.42705 5.21386 5.41341 5.35827C5.39936 5.50703 5.4 5.69061 5.4 5.87812H6.6Z" fill="#4B515B"/>
</g>
</g>
</svg>
